<?xml version="1.0" encoding="utf-8"?>
<!-- Generator: Adobe Illustrator 25.3.1, SVG Export Plug-In . SVG Version: 6.00 Build 0)  -->
<svg version="1.1" id="레이어_1" xmlns="http://www.w3.org/2000/svg" xmlns:xlink="http://www.w3.org/1999/xlink" x="0px"
	 y="0px" viewBox="0 0 319.36 110.55" style="enable-background:new 0 0 319.36 110.55;" xml:space="preserve">
<style type="text/css">
	.st0{fill-rule:evenodd;clip-rule:evenodd;fill:#FEFF54;}
	.st1{clip-path:url(#SVGID_2_);}
	.st2{clip-path:url(#SVGID_4_);}
	.st3{clip-path:url(#SVGID_6_);}
	.st4{clip-path:url(#SVGID_8_);}
	.st5{clip-path:url(#SVGID_10_);}
	.st6{clip-path:url(#SVGID_12_);}
	.st7{clip-path:url(#SVGID_14_);}
	.st8{clip-path:url(#SVGID_16_);}
	.st9{clip-path:url(#SVGID_18_);}
</style>
<g>
	<path class="st0" d="M4.31,50.21c0-22.53,18.27-40.8,40.8-40.8s40.8,18.27,40.8,40.8s-18.27,40.8-40.8,40.8S4.31,72.75,4.31,50.21
		L4.31,50.21z"/>
	<g>
		<defs>
			<rect id="SVGID_1_" x="4.31" y="9.41" width="341.52" height="114.72"/>
		</defs>
		<clipPath id="SVGID_2_">
			<use xlink:href="#SVGID_1_"  style="overflow:visible;"/>
		</clipPath>
		<g class="st1">
			<path d="M46.41,51.38c0.81-0.03,1.96,0.03,2.46,0.14c0.22,0.06,0.39,0.25,0.39,0.48c0.03,0.5-0.14,0.87-0.33,1.01
				c-0.11,0.08-0.34,0.14-0.53,0.14l-4.86,0.06v1.48c0,1.82-0.25,3.94-0.64,5.23h-1.17c-0.11-1.03-0.17-3.27-0.17-4.47
				c-3.97,1.23-9.23,2.12-12.83,2.35c-0.34,0.03-0.64,0.06-0.92,0.06c-0.89,0-1.51-0.53-1.79-1.37c-0.08-0.25-0.14-0.7-0.14-1.26
				v-6.65c-0.39-0.36-1.06-0.7-1.76-0.84l0.14-0.64c0.03-0.08,0.11-0.14,0.28-0.14c0.84,0,2.66,0.11,3.47,0.28
				c1.26-0.03,5.03-0.17,5.95-0.25l0.75-0.45c0.7,0,1.82,0.06,2.35,0.17c0.22,0.03,0.36,0.17,0.36,0.39c0,0.42-0.14,0.78-0.25,0.92
				c-0.08,0.11-0.22,0.17-0.39,0.17l-8.83,0.28v7.21c0,0.34,0.11,0.48,0.48,0.48c3.52-0.03,9.36-0.75,13.14-1.79v-9.03
				c-0.48-0.59-1.37-1.09-2.35-1.43l0.22-0.67c0.03-0.08,0.08-0.14,0.31-0.14c1.01,0.03,2.74,0.39,3.55,0.73
				c0.25,0.08,0.34,0.28,0.34,0.56l-0.08,1.45V52l1.98-0.08L46.41,51.38z M43.44,64.44c0,3.07-2.52,5.2-5.98,5.2
				c-3.49,0-6.01-2.13-6.01-5.2c0-2.96,2.52-4.98,6.01-4.98C40.93,59.46,43.44,61.47,43.44,64.44z M41.35,64.44
				c0-2.24-1.68-3.58-3.89-3.58c-2.24,0-3.88,1.34-3.88,3.58s1.65,3.58,3.88,3.58C39.67,68.01,41.35,66.67,41.35,64.44z"/>
			<path d="M59.24,52.58c-1.82,2.66-4.42,5.2-7.63,7.24c-0.11,0.08-0.22,0.08-0.28,0L51,59.54c-0.06-0.08-0.03-0.17,0.06-0.28
				c4.03-3.38,7.07-7.72,8.16-11.46c-0.25-0.53-0.92-1.15-1.62-1.54l0.33-0.59c0.06-0.08,0.14-0.11,0.31-0.08
				c0.98,0.17,2.46,0.73,3.02,1.09c0.22,0.14,0.33,0.31,0.33,0.56c0,0.22-0.03,0.42-0.06,0.59c-0.36,1.2-0.89,2.4-1.59,3.61
				l3.91,3.49l1.2,0.45c0.47,0.59,1.09,1.48,1.37,1.98c0.2,0.36,0.25,0.62,0.17,0.78c-0.11,0.33-0.62,0.56-0.92,0.45
				c-0.2-0.03-0.45-0.25-0.64-0.48L59.24,52.58z M70.96,67.09c0.84,0,2.1,0.08,2.63,0.22c0.22,0.03,0.36,0.17,0.36,0.39
				c0,0.53-0.17,0.84-0.31,0.98c-0.08,0.11-0.2,0.14-0.33,0.14l-12.02,0.06c-1.82,0-2.46-0.64-2.46-2.18v-4.14
				c-0.45-0.36-1.2-0.67-1.96-0.84l0.14-0.62c0.03-0.11,0.11-0.17,0.28-0.17c0.92,0,2.52,0.11,3.21,0.25
				c0.28,0.08,0.42,0.25,0.42,0.56l-0.06,1.23v3.97c0,0.5,0.2,0.73,0.7,0.73c1.79,0.03,6.88,0,8.5-0.08L70.96,67.09z M69.98,45.31
				c-0.48-0.59-1.37-1.09-2.35-1.43l0.22-0.67c0.03-0.08,0.08-0.14,0.31-0.14c1.01,0.03,2.74,0.39,3.55,0.73
				c0.25,0.08,0.34,0.28,0.34,0.56l-0.08,1.45v11.57c0,1.96-0.25,4.14-0.64,5.53h-1.17c-0.11-1.12-0.17-3.55-0.17-4.84V45.31z"/>
			<path d="M81.67,57.39c-0.03,0.5-0.17,0.89-0.36,1.26h-1.09c-0.14-0.42-0.22-1.03-0.25-1.57l-0.64-8.55
				c-0.31-0.34-0.89-0.67-1.45-0.87L78,47.08c0.03-0.11,0.11-0.14,0.28-0.14c0.84,0,2.46,0.11,3.27,0.28c1.79,0,5.45-0.03,7.21-0.14
				l0.95-0.53c0.11-0.08,0.31-0.08,0.45,0c0.34,0.14,0.98,0.5,1.26,0.7c0.08,0.08,0.11,0.17,0.06,0.34l-0.36,0.92
				c-0.06,2.29-0.33,5.06-0.64,7.38l0.5,0.2c0.14,0.06,0.2,0.17,0.2,0.31c0,0.39-0.17,0.73-0.31,0.87L81.67,57.39z M81.7,56.16
				c1.93,0,5.12-0.06,6.68-0.11l0.48-0.17l0.11-7.58c-2.32,0-5.12,0.06-7.44,0.14L81.7,56.16z M96.73,67.15
				c0.84,0,2.1,0.08,2.63,0.22c0.2,0.03,0.36,0.17,0.36,0.36c0,0.53-0.17,0.87-0.31,1.01c-0.08,0.11-0.2,0.14-0.36,0.14l-11.68,0.06
				c-1.82,0-2.46-0.64-2.46-2.18v-3.97c-0.45-0.36-1.2-0.64-1.96-0.81l0.14-0.62c0.03-0.14,0.11-0.17,0.28-0.17
				c0.92,0,2.52,0.08,3.21,0.25c0.28,0.06,0.42,0.22,0.42,0.53l-0.06,1.23v3.8c0,0.5,0.2,0.73,0.7,0.73c1.73,0.03,6.63,0,8.19-0.08
				L96.73,67.15z M100.42,52.36c0.81-0.03,1.96,0.03,2.46,0.14c0.22,0.06,0.39,0.25,0.39,0.45c0.03,0.5-0.14,0.87-0.33,1.01
				c-0.11,0.08-0.34,0.14-0.53,0.14l-4.86,0.08v3.21c0,1.96-0.25,4.14-0.64,5.53h-1.17c-0.11-1.12-0.17-3.55-0.17-4.84V45.31
				c-0.48-0.59-1.37-1.09-2.35-1.43l0.22-0.67c0.03-0.08,0.08-0.14,0.31-0.14c1.01,0.03,2.74,0.39,3.55,0.73
				c0.25,0.08,0.34,0.28,0.34,0.56l-0.08,1.45v7.13l1.98-0.08L100.42,52.36z"/>
			<path d="M126.37,55.21c1.01,0.03,2.49,0.2,3.13,0.42c0.2,0.06,0.36,0.22,0.36,0.45c0,0.48-0.34,0.87-0.59,1.01
				c-0.75-0.08-2.4-0.14-3.24-0.14c-1.96-0.03-14.76,0.14-16.24,0.22c-0.7,0.06-2.12,0.31-2.79,0.53c-1.01-0.31-2.04-0.87-2.74-1.43
				c-0.08-0.08-0.11-0.17-0.08-0.25l0.2-0.39c0.92,0.17,2.24,0.28,3.1,0.28c1.71,0.03,15.93-0.14,17.89-0.28L126.37,55.21z
				 M123.1,67.59c0.73,0,1.9,0.08,2.4,0.2c0.22,0.03,0.36,0.17,0.36,0.36c0,0.47-0.2,0.84-0.28,0.95c-0.11,0.08-0.25,0.14-0.36,0.14
				l-12.86,0.06c-1.54,0-2.04-0.5-2.04-1.76v-2.54c-0.36-0.34-0.95-0.56-1.59-0.7l0.11-0.5c0.03-0.11,0.11-0.17,0.28-0.17
				c0.78,0,2.57,0.06,3.3,0.14c2.07,0,7.83-0.06,8.92-0.11l0.45-0.14c0.08-0.62,0.11-2.21,0.08-2.82c-1.82-0.03-7.46,0.03-8.67,0.08
				c-0.5,0.06-1.54,0.22-2.21,0.42c-0.87-0.28-1.62-0.73-2.21-1.15c-0.14-0.11-0.14-0.2-0.08-0.31l0.14-0.28
				c0.75,0.14,1.79,0.22,2.52,0.22c1.48,0,8.81-0.06,10.62-0.14l0.81-0.39c0.11-0.06,0.31-0.06,0.45,0
				c0.28,0.11,0.84,0.39,1.09,0.56c0.11,0.08,0.11,0.2,0.06,0.36l-0.33,0.64c-0.06,0.81-0.34,2.18-0.56,2.82l0.53,0.25
				c0.08,0.08,0.14,0.14,0.14,0.25c0,0.31-0.14,0.59-0.25,0.7l-11.54,0.11v2.74c0,0.36,0.17,0.5,0.5,0.5c2.21,0.03,7.66,0,9.39-0.08
				L123.1,67.59z M110.49,49c0-2.91,2.79-4.84,6.46-4.84s6.46,1.93,6.46,4.84s-2.79,4.84-6.46,4.84S110.49,51.91,110.49,49z
				 M112.53,49c0,2.21,1.96,3.49,4.42,3.49s4.42-1.29,4.42-3.49s-1.96-3.49-4.42-3.49S112.53,46.8,112.53,49z"/>
		</g>
	</g>
	<g>
		<defs>
			<polygon id="SVGID_3_" points="4.31,124.13 345.83,124.13 345.83,9.41 4.31,9.41 4.31,124.13 			"/>
		</defs>
		<clipPath id="SVGID_4_">
			<use xlink:href="#SVGID_3_"  style="overflow:visible;"/>
		</clipPath>
		<g class="st2">
			<defs>
				<rect id="SVGID_5_" x="4.31" y="9.41" width="341.52" height="114.72"/>
			</defs>
			<clipPath id="SVGID_6_">
				<use xlink:href="#SVGID_5_"  style="overflow:visible;"/>
			</clipPath>
			<g class="st3">
				<path d="M156.21,43.22c0.06-0.08,0.11-0.14,0.33-0.14c1.01,0.03,2.77,0.39,3.58,0.73c0.25,0.08,0.34,0.28,0.34,0.56l-0.08,1.48
					V64.1c0,1.62-0.25,4.25-0.67,5.84h-1.15c-0.11-1.17-0.17-3.91-0.17-5.14v-6.04c-2.18,0.45-5.79,0.98-9.11,1.37v3.8
					c0,1.37-0.28,3.8-0.67,5.14h-1.15c-0.11-1.12-0.17-3.38-0.17-4.53v-4.19c-1.31,0.11-2.52,0.22-3.49,0.28
					c-0.45,0.06-1.71,0.34-2.18,0.48c-1.04-0.39-2.13-0.98-2.96-1.62c-0.11-0.08-0.11-0.17-0.08-0.28l0.17-0.36
					c1.01,0.2,2.26,0.25,3.21,0.25c4.25-0.08,12.36-0.7,16.44-1.4V45.31c-0.5-0.59-1.37-1.09-2.38-1.43L156.21,43.22z M142.01,51.07
					c0-2.94,2.6-5.03,6.07-5.03c3.49,0,6.09,2.1,6.09,5.03s-2.6,5.06-6.09,5.06C144.61,56.13,142.01,54.01,142.01,51.07z
					 M144.08,51.07c0,2.21,1.73,3.61,4,3.61s4-1.4,4-3.61s-1.73-3.61-4-3.61S144.08,48.86,144.08,51.07z"/>
				<path d="M179.09,48.53c0.81,0.03,2.01,0.17,2.52,0.33c0.2,0.08,0.31,0.22,0.31,0.36c0,0.48-0.36,0.89-0.56,1.03
					c-0.56-0.08-1.9-0.11-2.54-0.11c-1.12,0-8.08,0.14-9.14,0.22c-0.53,0.03-1.57,0.22-2.04,0.39c-0.78-0.28-1.65-0.81-2.24-1.26
					c-0.08-0.08-0.11-0.2-0.08-0.25l0.2-0.34c0.75,0.14,1.87,0.2,2.52,0.2c1.17,0.03,8.92-0.08,10.2-0.17L179.09,48.53z
					 M173.89,60.66c-3.19,0-5.76-1.84-5.76-4.61s2.57-4.58,5.76-4.58s5.76,1.82,5.76,4.58S177.07,60.66,173.89,60.66z M169.69,44.84
					c2.49,0.45,4.98,0.5,6.93,0.53c0.22,0,0.34,0.08,0.39,0.25c0.11,0.28,0.06,0.81-0.08,1.03c-0.08,0.14-0.22,0.17-0.36,0.17
					c-1.45,0.03-3.58,0.06-4.81,0.17c-0.25,0-0.36,0-0.53-0.11c-0.56-0.31-1.23-0.95-1.71-1.57c-0.06-0.08-0.06-0.17-0.03-0.25
					L169.69,44.84z M173.89,59.26c2.1,0,3.83-1.17,3.83-3.21c0-2.07-1.73-3.27-3.83-3.27c-2.07,0-3.8,1.2-3.8,3.27
					C170.09,58.09,171.82,59.26,173.89,59.26z M184.98,67.31c0.84-0.03,2.1,0.08,2.63,0.2c0.22,0.03,0.36,0.17,0.36,0.39
					c0,0.5-0.17,0.87-0.31,0.98c-0.08,0.11-0.2,0.14-0.34,0.14l-11.82,0.08h-0.03c-1.82-0.03-2.46-0.64-2.46-2.18v-2.85
					c-0.45-0.36-1.2-0.64-1.96-0.81l0.14-0.61c0.03-0.14,0.11-0.17,0.28-0.17c0.92,0,2.52,0.08,3.21,0.25
					c0.28,0.06,0.42,0.22,0.42,0.53l-0.06,1.23v2.66c0,0.53,0.2,0.73,0.7,0.73c1.76,0.03,6.71,0,8.33-0.08L184.98,67.31z
					 M188.62,53.34c0.81-0.03,1.96,0.03,2.46,0.14c0.22,0.06,0.39,0.25,0.39,0.48c0.03,0.5-0.14,0.87-0.33,0.98
					c-0.11,0.11-0.34,0.14-0.53,0.14l-4.86,0.08v2.74c0,1.98-0.25,4.14-0.64,5.54h-1.17c-0.11-1.12-0.17-3.55-0.17-4.84V45.31
					c-0.47-0.59-1.37-1.09-2.35-1.43l0.22-0.67c0.03-0.08,0.08-0.14,0.31-0.14c1.01,0.03,2.74,0.39,3.55,0.73
					c0.25,0.08,0.34,0.28,0.34,0.56l-0.08,1.45v8.13l1.98-0.08L188.62,53.34z"/>
			</g>
		</g>
		<g class="st2">
			<defs>
				<polygon id="SVGID_7_" points="4.31,124.13 345.83,124.13 345.83,9.41 4.31,9.41 4.31,124.13 				"/>
			</defs>
			<clipPath id="SVGID_8_">
				<use xlink:href="#SVGID_7_"  style="overflow:visible;"/>
			</clipPath>
			<g class="st4">
				<defs>
					<rect id="SVGID_9_" x="4.31" y="9.41" width="341.52" height="114.72"/>
				</defs>
				<clipPath id="SVGID_10_">
					<use xlink:href="#SVGID_9_"  style="overflow:visible;"/>
				</clipPath>
				<g class="st5">
					<path d="M41.04,76.82c0.03-0.08,0.08-0.14,0.31-0.14c1.01,0.03,2.77,0.39,3.55,0.73c0.25,0.08,0.33,0.28,0.33,0.56l-0.06,1.45
						v9.37c0,1.42-0.28,3.63-0.67,4.89h-1.17c-0.11-1.01-0.17-3.19-0.17-4.25V88.5c-1.03,0-2.43,0.03-3.08,0.08
						c-0.5,0.06-1.23,0.22-1.73,0.39c-0.64-0.22-1.2-0.56-1.71-0.92c-0.98,1.82-2.96,2.94-5.42,2.94c-3.58,0-6.15-2.32-6.15-5.65
						c0-3.27,2.57-5.59,6.15-5.59c3.52,0,6.09,2.32,6.09,5.59c0,0.73-0.11,1.4-0.33,2.01c0.53,0.06,1.15,0.08,1.68,0.08
						c0.89,0,3.1-0.06,4.5-0.14v-4.53c-0.84,0-1.84,0-2.32,0.06c-0.5,0.06-1.23,0.22-1.76,0.42c-0.73-0.31-1.43-0.73-1.93-1.15
						c-0.08-0.08-0.11-0.17-0.08-0.25l0.14-0.31c0.67,0.11,1.51,0.17,2.18,0.17c0.81,0,2.54-0.03,3.77-0.11v-2.68
						c-0.48-0.59-1.37-1.09-2.35-1.43L41.04,76.82z M35.31,85.35c0-2.54-1.73-4.11-4.08-4.11c-2.35,0-4.11,1.57-4.11,4.11
						c0,2.57,1.76,4.14,4.11,4.14C33.58,89.48,35.31,87.92,35.31,85.35z M44.92,98.04c0,3.13-2.54,5.26-6.04,5.26
						s-6.04-2.13-6.04-5.26c0-3.02,2.54-5.06,6.04-5.06S44.92,95.02,44.92,98.04z M42.83,98.04c0-2.32-1.65-3.72-3.94-3.72
						c-2.29,0-3.94,1.4-3.94,3.72c0,2.35,1.65,3.72,3.94,3.72C41.18,101.75,42.83,100.38,42.83,98.04z"/>
					<path d="M57.57,90.68c-3.52,0-6.09-2.24-6.09-5.48c0-3.21,2.57-5.45,6.09-5.45c3.49,0,6.07,2.24,6.07,5.45
						C63.63,88.45,61.06,90.68,57.57,90.68z M61.65,85.21c0-2.49-1.76-3.97-4.08-3.97c-2.29,0-4.05,1.48-4.05,3.97
						c0,2.46,1.76,3.94,4.05,3.94C59.89,89.15,61.65,87.67,61.65,85.21z M70.48,97.9c0,3.16-2.54,5.37-6.01,5.37
						c-3.47,0-6.01-2.21-6.01-5.37c0-3.05,2.54-5.14,6.01-5.14C67.94,92.75,70.48,94.85,70.48,97.9z M68.36,97.9
						c0-2.32-1.65-3.77-3.89-3.77c-2.24,0-3.88,1.45-3.88,3.77c0,2.35,1.65,3.77,3.88,3.77C66.71,101.67,68.36,100.25,68.36,97.9z
						 M73.42,87.53c0.81-0.03,1.96,0.03,2.46,0.14c0.22,0.06,0.39,0.25,0.39,0.48c0.03,0.48-0.14,0.84-0.33,0.98
						c-0.11,0.08-0.34,0.14-0.53,0.14l-4.89,0.08c-0.08,1.48-0.31,3.02-0.61,4.05h-1.17c-0.11-1.09-0.17-3.35-0.17-4.58v-9.9
						c-0.48-0.59-1.37-1.09-2.35-1.43l0.22-0.67c0.03-0.08,0.08-0.14,0.31-0.14c1.01,0.03,2.74,0.39,3.55,0.73
						c0.25,0.08,0.34,0.28,0.34,0.56l-0.08,1.45v3.21l1.98-0.08l0.89-0.53c0.81-0.03,1.96,0.03,2.46,0.14
						c0.22,0.06,0.39,0.25,0.39,0.45c0.03,0.5-0.14,0.87-0.33,1.01c-0.11,0.08-0.34,0.11-0.53,0.11l-4.86,0.08v4.33l1.98-0.08
						L73.42,87.53z"/>
					<path d="M89.8,92.53c0.36,0.62,0.78,1.57,0.95,2.1c0.11,0.36,0.11,0.59,0,0.75c-0.17,0.28-0.67,0.39-0.95,0.25
						c-0.14-0.03-0.36-0.28-0.53-0.5l-3.8-5.14c-1.96,2.43-4.42,4.72-7.1,6.46c-0.11,0.11-0.2,0.11-0.28,0.08l-0.28-0.28
						c-0.08-0.06-0.11-0.11-0.03-0.25c4.42-3.69,7.69-8.53,9.14-12.69c-1.34,0-4,0.06-4.61,0.11c-0.5,0.03-1.42,0.22-1.9,0.39
						c-0.7-0.28-1.48-0.75-1.98-1.2c-0.11-0.11-0.14-0.17-0.08-0.25l0.17-0.31c0.67,0.11,1.59,0.14,2.24,0.14
						c0.89,0,5.23-0.03,6.51-0.08l0.87-0.45c0.11-0.06,0.31-0.06,0.45,0c0.31,0.14,0.92,0.42,1.12,0.56
						c0.14,0.08,0.14,0.22,0.06,0.33l-0.45,0.84c-0.62,1.79-1.68,3.69-3.02,5.54l2.46,3.02L89.8,92.53z M91.59,78.8
						c0.06-0.08,0.14-0.14,0.33-0.14c0.89,0.03,2.4,0.34,3.1,0.64c0.2,0.11,0.28,0.28,0.28,0.53l-0.06,1.23v15.12
						c0,1.51-0.25,3.94-0.64,5.42h-1.09c-0.11-1.15-0.17-3.58-0.17-4.75v-7.6c-0.5,0.03-1.09,0.08-1.34,0.11
						c-0.5,0.06-1.2,0.22-1.71,0.42c-0.7-0.31-1.37-0.67-1.87-1.09c-0.08-0.11-0.11-0.17-0.08-0.28l0.17-0.31
						c0.64,0.08,1.43,0.11,2.13,0.11c0.67,0,1.82-0.03,2.71-0.08v-7.46c-0.39-0.5-1.17-0.95-1.98-1.23L91.59,78.8z M96.23,76.85
						c0.06-0.11,0.14-0.17,0.33-0.17c0.95,0.03,2.63,0.36,3.33,0.7c0.28,0.08,0.36,0.28,0.33,0.53l-0.06,1.37v18.7
						c0,1.54-0.25,4.05-0.67,5.56h-1.12c-0.11-1.09-0.17-3.69-0.17-4.89V78.83c-0.45-0.56-1.29-1.03-2.18-1.34L96.23,76.85z"/>
				</g>
			</g>
			<g class="st4">
				<defs>
					<polygon id="SVGID_11_" points="4.31,124.13 345.83,124.13 345.83,9.41 4.31,9.41 4.31,124.13 					"/>
				</defs>
				<clipPath id="SVGID_12_">
					<use xlink:href="#SVGID_11_"  style="overflow:visible;"/>
				</clipPath>
				<g class="st6">
					<defs>
						<rect id="SVGID_13_" x="4.31" y="9.41" width="341.52" height="114.72"/>
					</defs>
					<clipPath id="SVGID_14_">
						<use xlink:href="#SVGID_13_"  style="overflow:visible;"/>
					</clipPath>
					<g class="st7">
						<path d="M133.55,90.49c1.01,0.06,2.49,0.22,3.13,0.42c0.2,0.08,0.36,0.25,0.36,0.48c0,0.47-0.34,0.89-0.59,1.03
							c-0.75-0.08-2.4-0.14-3.24-0.14c-0.56,0-2.07,0-3.91,0.03v5.67c0,1.45-0.28,4.11-0.64,5.59h-1.17
							c-0.11-1.23-0.17-3.72-0.17-4.98v-6.29c-2.07,0.03-4.33,0.06-6.23,0.11v4.98c0,1.48-0.28,4.14-0.67,5.62h-1.15
							c-0.11-1.23-0.2-3.69-0.2-4.98v-5.59c-1.03,0.03-1.79,0.03-2.1,0.06c-0.7,0.06-2.12,0.31-2.79,0.53
							c-1.01-0.31-2.04-0.89-2.74-1.45c-0.08-0.08-0.11-0.17-0.08-0.25l0.2-0.42c0.92,0.2,2.24,0.31,3.1,0.31
							c1.26,0.03,9.42-0.08,14.37-0.17c0.34-1.71,0.62-3.8,0.81-5.81c-2.88,0.45-7.88,0.95-11.01,1.12
							c-0.56,0.06-1.48,0.22-1.98,0.42c-0.87-0.33-1.76-0.84-2.43-1.34c-0.11-0.08-0.14-0.17-0.08-0.28l0.2-0.36
							c0.87,0.11,1.84,0.17,2.68,0.14c3.27-0.03,9.59-0.45,12.72-0.81c0.11-1.4,0.2-2.71,0.2-3.83c-2.21,0-8.19,0.11-9.5,0.2
							c-0.67,0.06-1.96,0.25-2.6,0.47c-0.84-0.31-1.76-0.84-2.38-1.37c-0.08-0.08-0.11-0.17-0.08-0.25l0.2-0.36
							c0.81,0.17,1.87,0.28,2.66,0.28c1.43,0,9.67-0.11,11.68-0.22l1.06-0.5c0.14-0.06,0.33-0.06,0.45,0
							c0.36,0.17,0.98,0.56,1.2,0.73c0.11,0.11,0.11,0.2,0.06,0.34l-0.39,0.89c-0.14,2.99-1.09,7.41-2.26,10.54
							c1.12-0.03,1.96-0.06,2.35-0.08L133.55,90.49z"/>
						<path d="M152.06,94.15c0.03,0.11-0.03,0.2-0.17,0.25c-2.18,0.92-5.76,1.73-7.91,1.93c-0.31,0.03-0.7,0.06-0.98,0.06
							c-1.06,0-1.59-0.36-1.93-1.23c-0.06-0.17-0.11-0.67-0.11-1.31v-4.72c-0.36-0.31-0.87-0.56-1.45-0.7l0.08-0.56
							c0.06-0.08,0.14-0.14,0.31-0.14c0.7,0,2.4,0.03,3.08,0.08c1.09,0,3.61-0.06,4.28-0.14l0.39-0.11
							c0.08-1.12,0.11-3.89,0.06-4.89c-0.84,0-3.49,0.06-4.08,0.08c-0.5,0.06-1.34,0.25-1.9,0.42c-0.75-0.28-1.48-0.75-2.01-1.17
							c-0.11-0.11-0.11-0.2-0.08-0.28l0.2-0.36c0.64,0.11,1.62,0.22,2.24,0.22c0.95,0,4.56-0.08,5.67-0.17l0.78-0.42
							c0.11-0.06,0.31-0.06,0.45,0c0.28,0.14,0.87,0.48,1.09,0.64c0.11,0.08,0.11,0.2,0.06,0.33l-0.28,0.78
							c-0.03,1.29-0.31,3.72-0.53,4.89l0.33,0.22c0.11,0.06,0.17,0.17,0.17,0.25c0,0.31-0.14,0.62-0.25,0.75l-6.6,0.17v5.12
							c0,0.31,0.11,0.45,0.48,0.47c2.35-0.03,6.18-0.47,8.25-1.03c0.14-0.03,0.25,0,0.28,0.14L152.06,94.15z M152.79,78.8
							c0.03-0.08,0.11-0.17,0.31-0.17c0.89,0.06,2.4,0.36,3.1,0.67c0.2,0.11,0.31,0.25,0.31,0.53l-0.08,1.2v15.12
							c0,1.54-0.25,3.97-0.64,5.42h-1.09c-0.11-1.12-0.14-3.58-0.14-4.72v-8.39c-0.53,0-1.12,0.03-1.43,0.08
							c-0.42,0.03-1.09,0.14-1.48,0.28c-0.56-0.28-1.06-0.59-1.45-0.95c-0.11-0.11-0.11-0.2-0.08-0.31l0.17-0.31
							c0.5,0.08,1.15,0.08,1.71,0.08c0.67,0,1.73-0.03,2.57-0.08v-6.6c-0.42-0.5-1.17-0.95-1.98-1.23L152.79,78.8z M157.43,76.85
							c0.06-0.11,0.14-0.17,0.33-0.17c0.95,0.03,2.63,0.36,3.33,0.7c0.28,0.08,0.36,0.28,0.33,0.53l-0.06,1.37v18.7
							c0,1.54-0.25,4.05-0.67,5.56h-1.12c-0.11-1.09-0.17-3.69-0.17-4.89V78.83c-0.45-0.56-1.29-1.03-2.18-1.34L157.43,76.85z"/>
						<path d="M173.81,93.98c-3.72,0-6.46-2.49-6.46-6.04c0-3.52,2.74-5.98,6.46-5.98c3.69,0,6.4,2.46,6.4,5.98
							C180.21,91.5,177.5,93.98,173.81,93.98z M173.81,83.5c-2.46,0-4.33,1.68-4.33,4.45c0,2.82,1.87,4.47,4.33,4.47
							s4.33-1.65,4.33-4.47C178.14,85.18,176.27,83.5,173.81,83.5z M185.38,103.54c-0.08-1.17-0.14-3.91-0.14-5.14V78.92
							c-0.5-0.59-1.4-1.09-2.4-1.43l0.22-0.67c0.03-0.08,0.08-0.14,0.31-0.14c1.03,0.03,2.77,0.39,3.58,0.73
							c0.25,0.08,0.33,0.28,0.33,0.56l-0.06,1.48V97.7c0,1.62-0.28,4.25-0.67,5.84H185.38z"/>
						<path d="M200.57,87.02c-1.71,2.38-4.03,4.61-6.85,6.46c-0.11,0.08-0.2,0.08-0.28,0l-0.31-0.28c-0.08-0.08-0.06-0.2,0.03-0.28
							c3.91-3.44,6.85-7.77,7.85-11.52c-0.25-0.53-0.92-1.15-1.59-1.54l0.31-0.59c0.06-0.08,0.17-0.11,0.33-0.08
							c0.95,0.17,2.46,0.75,3.02,1.12c0.22,0.11,0.33,0.31,0.33,0.53s-0.03,0.45-0.08,0.59c-0.39,1.48-1.09,2.99-2.01,4.47
							l3.27,3.44l1.17,0.5c0.42,0.64,0.95,1.57,1.17,2.1c0.14,0.36,0.17,0.62,0.11,0.75c-0.17,0.36-0.67,0.53-0.98,0.42
							c-0.14-0.03-0.42-0.28-0.59-0.5L200.57,87.02z M213.37,100.72c0.84,0,2.1,0.08,2.63,0.2c0.22,0.06,0.36,0.2,0.36,0.39
							c0,0.53-0.17,0.87-0.31,1.01c-0.08,0.08-0.2,0.14-0.36,0.14l-12.19,0.06c-1.84,0-2.46-0.64-2.46-2.18v-4.19
							c-0.45-0.36-1.23-0.64-1.98-0.81l0.14-0.62c0.03-0.11,0.14-0.17,0.31-0.17c0.89,0,2.52,0.08,3.19,0.25
							c0.28,0.06,0.42,0.22,0.42,0.53l-0.03,1.23v4.03c0,0.5,0.2,0.73,0.67,0.73c1.84,0.03,7.04-0.03,8.72-0.08L213.37,100.72z
							 M212.39,83.72c-0.95,0-2.24,0.03-2.77,0.11c-0.53,0.06-1.26,0.25-1.76,0.48c-0.78-0.31-1.45-0.73-2.01-1.15
							c-0.08-0.08-0.11-0.17-0.08-0.28l0.17-0.31c0.67,0.08,1.51,0.14,2.24,0.14c0.89,0,2.91-0.06,4.22-0.17v-3.63
							c-0.48-0.59-1.37-1.09-2.35-1.43l0.22-0.67c0.03-0.08,0.08-0.14,0.31-0.14c1.01,0.03,2.77,0.39,3.55,0.73
							c0.25,0.08,0.33,0.28,0.33,0.56l-0.06,1.45v11.85c0,1.96-0.28,4.11-0.67,5.51h-1.17c-0.11-1.12-0.17-3.55-0.17-4.84v-3.1
							c-0.92,0.03-2.13,0.08-2.66,0.14c-0.5,0.06-1.23,0.25-1.73,0.45c-0.78-0.31-1.48-0.73-2.01-1.15
							c-0.11-0.06-0.11-0.17-0.08-0.25l0.14-0.31c0.67,0.08,1.54,0.14,2.24,0.14c0.87,0,2.79-0.08,4.11-0.17V83.72z"/>
					</g>
				</g>
				<g class="st6">
					<defs>
						<polygon id="SVGID_15_" points="4.31,124.13 345.83,124.13 345.83,9.41 4.31,9.41 4.31,124.13 						"/>
					</defs>
					<clipPath id="SVGID_16_">
						<use xlink:href="#SVGID_15_"  style="overflow:visible;"/>
					</clipPath>
					<g class="st8">
						<defs>
							<rect id="SVGID_17_" x="4.31" y="9.41" width="341.52" height="114.72"/>
						</defs>
						<clipPath id="SVGID_18_">
							<use xlink:href="#SVGID_17_"  style="overflow:visible;"/>
						</clipPath>
						<g class="st9">
							<path d="M240.29,91.63c0.45,0.67,1.01,1.73,1.23,2.29c0.14,0.42,0.2,0.7,0.08,0.89c-0.2,0.31-0.7,0.48-1.01,0.36
								c-0.17-0.06-0.45-0.34-0.64-0.59l-4.92-6.04c-1.68,2.6-4.05,5.12-6.96,7.24c-0.11,0.06-0.22,0.06-0.31,0l-0.34-0.31
								c-0.08-0.06-0.08-0.14,0.06-0.25c4-3.86,6.93-8.69,7.86-12.75c-0.25-0.5-0.98-1.15-1.71-1.57l0.31-0.56
								c0.06-0.11,0.17-0.14,0.33-0.11c0.98,0.17,2.54,0.75,3.13,1.12c0.2,0.14,0.31,0.33,0.31,0.56c0,0.2-0.03,0.45-0.06,0.59
								c-0.34,1.56-0.98,3.19-1.87,4.81l3.1,3.49L240.29,91.63z M244.56,76.82c0.03-0.08,0.08-0.14,0.31-0.14
								c1.03,0.03,2.8,0.39,3.58,0.73c0.25,0.08,0.36,0.28,0.34,0.56l-0.06,1.48V97.7c0,1.62-0.25,4.25-0.67,5.84h-1.17
								c-0.08-1.17-0.14-3.91-0.14-5.14V87.78c-1.01,0-2.43,0.06-3.05,0.14c-0.5,0.06-1.29,0.22-1.79,0.48
								c-0.81-0.34-1.57-0.81-2.13-1.29c-0.11-0.08-0.14-0.17-0.08-0.28l0.14-0.31c0.73,0.11,1.62,0.17,2.38,0.17
								c0.95,0,3.16-0.08,4.53-0.14v-7.63c-0.5-0.59-1.4-1.09-2.4-1.43L244.56,76.82z"/>
							<path d="M268.52,93.68c0.11,0.06,0.2,0.14,0.2,0.28c0,0.34-0.11,0.64-0.25,0.78c-2.04-0.03-7.72,0.06-9.81,0.08
								c-0.08,0.59-0.28,0.98-0.47,1.2h-1.09c-0.17-0.45-0.22-1.17-0.22-1.68l-0.22-10.87c-0.39-0.36-1.09-0.73-1.79-0.89l0.17-0.7
								c0.06-0.06,0.14-0.11,0.34-0.11c0.89,0,2.4,0.14,3.13,0.33c0.2,0.08,0.31,0.2,0.31,0.48l-0.06,1.17v3.19l7.52-0.11v-4.67
								c-0.42-0.45-1.12-0.84-1.9-1.12l0.25-0.67c0.03-0.11,0.11-0.14,0.31-0.14c0.92,0.06,2.4,0.36,3.13,0.67
								c0.2,0.08,0.28,0.2,0.28,0.42l-0.06,1.17l-0.08,8.44c0,0.81-0.14,1.93-0.31,2.6L268.52,93.68z M258.74,88.17l-0.03,5.42
								l7.55-0.08v-5.45L258.74,88.17z M271.35,76.82c0.03-0.08,0.11-0.14,0.34-0.14c1.01,0.06,2.77,0.39,3.58,0.73
								c0.22,0.08,0.33,0.28,0.33,0.56l-0.08,1.48V97.7c0,1.62-0.25,4.25-0.67,5.84h-1.15c-0.11-1.17-0.17-3.91-0.17-5.14V78.94
								c-0.5-0.59-1.4-1.12-2.38-1.45L271.35,76.82z"/>
							<path d="M302.88,96.75c1.01,0.03,2.49,0.2,3.13,0.39c0.2,0.08,0.36,0.25,0.36,0.48c0,0.48-0.34,0.89-0.59,1.03
								c-0.75-0.08-2.4-0.14-3.24-0.14c-1.96-0.03-14.76,0.14-16.24,0.22c-0.7,0.06-2.13,0.31-2.8,0.53
								c-1.01-0.31-2.04-0.89-2.74-1.45c-0.08-0.08-0.11-0.17-0.08-0.25l0.2-0.39c0.92,0.17,2.24,0.28,3.1,0.28
								c1.71,0.03,15.93-0.17,17.89-0.28L302.88,96.75z M282.54,92.36c-0.06-0.08-0.03-0.17,0.06-0.22
								c5.06-2.88,9.03-6.9,10.73-10.62c-0.28-0.5-0.98-1.12-1.68-1.48l0.39-0.62c0.08-0.11,0.17-0.14,0.34-0.11
								c1.09,0.22,2.63,0.78,3.24,1.17c0.22,0.17,0.36,0.33,0.36,0.59s-0.06,0.45-0.14,0.64c-0.45,0.98-1.01,1.93-1.71,2.85
								l5.7,3.21l1.79,0.42c0.7,0.5,1.65,1.29,2.07,1.76c0.31,0.31,0.45,0.59,0.42,0.78c-0.03,0.36-0.42,0.7-0.75,0.67
								c-0.2,0-0.53-0.17-0.81-0.31l-9.25-5.51c-2.43,2.85-6.01,5.4-10.2,7.16c-0.14,0.06-0.2,0.06-0.25,0L282.54,92.36z"/>
						</g>
					</g>
				</g>
			</g>
		</g>
	</g>
</g>
<g>
</g>
<g>
</g>
<g>
</g>
<g>
</g>
<g>
</g>
<g>
</g>
<g>
</g>
<g>
</g>
<g>
</g>
<g>
</g>
<g>
</g>
<g>
</g>
<g>
</g>
<g>
</g>
<g>
</g>
</svg>
