<?xml version="1.0" encoding="utf-8"?>
<!-- Generator: Adobe Illustrator 25.3.1, SVG Export Plug-In . SVG Version: 6.00 Build 0)  -->
<svg version="1.1" id="레이어_1" xmlns="http://www.w3.org/2000/svg" xmlns:xlink="http://www.w3.org/1999/xlink" x="0px"
	 y="0px" viewBox="0 0 319.36 110.55" style="enable-background:new 0 0 319.36 110.55;" xml:space="preserve">
<style type="text/css">
	.st0{clip-path:url(#SVGID_2_);}
	.st1{clip-path:url(#SVGID_4_);}
	.st2{clip-path:url(#SVGID_6_);}
	.st3{clip-path:url(#SVGID_8_);}
	.st4{clip-path:url(#SVGID_10_);}
	.st5{fill:#E2AC00;}
	.st6{clip-path:url(#SVGID_12_);}
	.st7{clip-path:url(#SVGID_14_);}
	.st8{clip-path:url(#SVGID_16_);}
	.st9{clip-path:url(#SVGID_18_);}
	.st10{clip-path:url(#SVGID_20_);}
	.st11{clip-path:url(#SVGID_22_);}
	.st12{clip-path:url(#SVGID_24_);}
	.st13{clip-path:url(#SVGID_26_);}
	.st14{clip-path:url(#SVGID_28_);}
	.st15{clip-path:url(#SVGID_30_);}
	.st16{clip-path:url(#SVGID_32_);}
	.st17{clip-path:url(#SVGID_34_);}
	.st18{clip-path:url(#SVGID_36_);}
	.st19{clip-path:url(#SVGID_38_);}
	.st20{clip-path:url(#SVGID_40_);}
	.st21{clip-path:url(#SVGID_42_);}
	.st22{clip-path:url(#SVGID_44_);}
</style>
<g>
	<g>
		<defs>
			<rect id="SVGID_23_" x="28.84" y="22.55" width="315.23" height="68.73"/>
		</defs>
		<clipPath id="SVGID_2_">
			<use xlink:href="#SVGID_23_"  style="overflow:visible;"/>
		</clipPath>
		<g class="st0">
			<path d="M53.51,42.48c0.33,0.5,0.77,1.27,0.96,1.68c0.13,0.33,0.17,0.58,0.08,0.73c-0.15,0.31-0.62,0.48-0.91,0.37
				c-0.17-0.06-0.39-0.25-0.54-0.42l-3.57-3.76c-1.68,1.91-3.82,3.68-6.15,5c-0.12,0.08-0.21,0.08-0.27,0.04l-0.35-0.31
				c-0.06-0.06-0.08-0.15,0.02-0.25c3.59-2.76,6.31-6.4,7.56-9.62c-1.16-0.02-3.12,0-3.61,0.04c-0.42,0.02-1.2,0.17-1.62,0.33
				c-0.6-0.27-1.25-0.69-1.7-1.1c-0.08-0.06-0.1-0.15-0.06-0.23l0.15-0.27c0.6,0.08,1.39,0.12,1.93,0.12c0.79,0,4.49-0.04,5.44-0.08
				l0.79-0.35c0.13-0.04,0.29-0.04,0.42,0c0.31,0.12,0.96,0.42,1.2,0.56c0.1,0.06,0.1,0.19,0.02,0.29l-0.46,0.66
				c-0.54,1.37-1.37,2.78-2.45,4.13l2.16,2.06L53.51,42.48z M54.86,31.12c0.02-0.08,0.08-0.12,0.27-0.12
				c0.87,0.04,2.37,0.33,3.03,0.62c0.21,0.08,0.29,0.25,0.29,0.5l-0.08,1.18v12.83c0,1.29-0.25,3.59-0.66,4.9h-1.14
				c-0.1-0.81-0.19-3.32-0.19-4.26V32.91c-0.33-0.46-1-0.87-1.72-1.14L54.86,31.12z"/>
			<path d="M78.31,39.26c0.81,0.04,1.99,0.19,2.51,0.37c0.19,0.06,0.31,0.21,0.31,0.42c0,0.46-0.31,0.85-0.56,0.98
				c-0.54-0.06-1.87-0.1-2.53-0.1c-1.43-0.02-10.4,0.08-11.59,0.17c-0.54,0.04-1.7,0.25-2.24,0.42c-0.81-0.29-1.66-0.81-2.2-1.33
				c-0.08-0.06-0.1-0.15-0.06-0.23l0.17-0.33c0.77,0.12,1.79,0.21,2.51,0.23c0.96,0.02,6.54-0.04,10.07-0.13
				c0.37-1.58,0.62-4.09,0.64-5.65c-1.72-0.02-5.54,0.04-6.48,0.1c-0.52,0.02-1.45,0.19-1.95,0.35c-0.71-0.29-1.45-0.77-1.97-1.23
				c-0.1-0.08-0.13-0.17-0.08-0.25l0.17-0.31c0.71,0.12,1.62,0.19,2.26,0.19c1.06,0.02,6.79-0.08,8.22-0.15l0.87-0.39
				c0.1-0.04,0.29-0.04,0.39,0c0.33,0.15,0.93,0.46,1.16,0.6c0.08,0.08,0.1,0.17,0.04,0.31l-0.35,0.81
				c-0.17,1.68-0.79,3.99-1.52,5.59c0.64-0.02,1.12-0.04,1.37-0.06L78.31,39.26z M75.63,43.21c0.13-0.04,0.27-0.04,0.39,0
				c0.29,0.12,0.85,0.39,1.06,0.54c0.08,0.04,0.08,0.17,0.04,0.29l-0.25,0.83c-0.08,1.2-0.27,2.6-0.5,3.84l0.42,0.19
				c0.13,0.06,0.17,0.17,0.17,0.29c0,0.39-0.14,0.75-0.31,0.89l-7.91,0.08c-0.06,0.23-0.19,0.42-0.35,0.6h-1.1
				c-0.17-0.29-0.27-0.75-0.29-1.18l-0.33-4.78c-0.25-0.25-0.69-0.54-1.12-0.71l0.15-0.54c0.02-0.08,0.08-0.13,0.21-0.13
				c0.75,0,2.08,0.13,2.82,0.23c1.41,0,4.69-0.04,6.13-0.12L75.63,43.21z M68.79,48.88c1.6,0.02,4.2-0.02,5.52-0.08l0.42-0.1
				l0.06-3.82c-1.91,0-4.22,0.04-6.04,0.08L68.79,48.88z"/>
		</g>
	</g>
	<g>
		<defs>
			<polygon id="SVGID_25_" points="28.84,91.29 344.07,91.29 344.07,22.55 28.84,22.55 28.84,91.29 			"/>
		</defs>
		<clipPath id="SVGID_4_">
			<use xlink:href="#SVGID_25_"  style="overflow:visible;"/>
		</clipPath>
		<g class="st1">
			<defs>
				<rect id="SVGID_27_" x="28.84" y="22.55" width="315.23" height="68.73"/>
			</defs>
			<clipPath id="SVGID_6_">
				<use xlink:href="#SVGID_27_"  style="overflow:visible;"/>
			</clipPath>
			<g class="st2">
				<path d="M97.75,43.48c0.1,0.02,0.17,0.12,0.17,0.23c0,0.35-0.1,0.69-0.25,0.81c-1.5,0-5.28,0.04-6.89,0.08
					c-0.1,0.44-0.29,0.73-0.48,0.91h-1.06c-0.17-0.42-0.25-1.04-0.25-1.45l-0.15-7.83c-0.25-0.27-0.79-0.58-1.27-0.73l0.14-0.6
					c0.04-0.06,0.1-0.1,0.29-0.1c0.73-0.02,2.1,0.13,2.66,0.27c0.19,0.06,0.27,0.19,0.27,0.42l-0.04,0.93v1.99l4.67-0.08v-3.14
					c-0.27-0.33-0.79-0.64-1.31-0.85l0.21-0.6c0.02-0.08,0.08-0.12,0.27-0.1c0.75,0.04,2.1,0.31,2.66,0.56
					c0.19,0.08,0.25,0.19,0.25,0.39l-0.06,0.98l-0.06,5.73c0,0.66-0.1,1.54-0.25,2.04L97.75,43.48z M90.9,39.64l-0.02,3.7l4.69-0.04
					v-3.74L90.9,39.64z M104.5,39.24c0.6-0.02,1.47,0.02,1.85,0.1c0.23,0.06,0.37,0.23,0.39,0.42c0.02,0.44-0.1,0.81-0.25,0.96
					c-0.13,0.1-0.35,0.17-0.54,0.17l-3.39,0.08v5.17c0,1.29-0.25,3.59-0.68,4.9h-1.14c-0.1-0.81-0.19-3.32-0.19-4.26V32.91
					c-0.33-0.46-1-0.87-1.72-1.14l0.21-0.64c0.04-0.08,0.08-0.12,0.27-0.12c0.89,0.04,2.37,0.33,3.05,0.62
					c0.21,0.08,0.29,0.25,0.27,0.5l-0.06,1.18v6.42l1.27-0.06L104.5,39.24z"/>
				<path d="M123.68,46.01c0.81,0.04,1.99,0.19,2.51,0.37c0.19,0.06,0.31,0.21,0.31,0.42c0,0.46-0.31,0.85-0.56,0.98
					c-0.54-0.06-1.87-0.1-2.53-0.1c-1.43-0.02-10.4,0.08-11.59,0.17c-0.54,0.04-1.7,0.25-2.24,0.42c-0.81-0.29-1.66-0.81-2.2-1.33
					c-0.08-0.06-0.1-0.15-0.06-0.23l0.17-0.33c0.77,0.13,1.79,0.21,2.51,0.23c0.62,0,3.24-0.02,5.96-0.04v-3.53l-3.03,0.04
					c-1.23-0.02-1.7-0.52-1.7-1.64v-2.7c-0.27-0.25-0.71-0.48-1.18-0.6l0.08-0.5c0.02-0.08,0.1-0.12,0.23-0.12
					c0.71,0,2.37,0.04,2.99,0.1c1.52,0,5.57-0.06,6.52-0.12l0.46-0.1c0.08-0.64,0.1-2.18,0.06-2.76c-1.45-0.02-5.48,0.04-6.35,0.08
					c-0.46,0.02-1.33,0.17-1.87,0.33c-0.71-0.33-1.37-0.77-1.87-1.23c-0.08-0.08-0.1-0.15-0.06-0.25l0.17-0.29
					c0.6,0.12,1.58,0.19,2.12,0.19c1.12,0.02,6.67-0.04,8.04-0.1l0.81-0.37c0.13-0.06,0.25-0.06,0.39,0
					c0.29,0.12,0.87,0.39,1.1,0.54c0.1,0.06,0.1,0.19,0.04,0.33l-0.29,0.73c-0.06,0.79-0.33,2.16-0.54,2.82l0.46,0.21
					c0.08,0.06,0.12,0.15,0.12,0.25c0,0.33-0.12,0.64-0.25,0.77l-9.1,0.15v2.62c0,0.31,0.12,0.46,0.44,0.46
					c1.75,0.02,5.69-0.04,7.1-0.13l0.58-0.33c0.66-0.02,1.64,0.04,2.08,0.15c0.21,0.04,0.33,0.19,0.33,0.37
					c0,0.44-0.15,0.77-0.27,0.89c-0.08,0.08-0.21,0.1-0.35,0.1l-5.25,0.08v3.53c2.29-0.04,4.3-0.08,4.9-0.12L123.68,46.01z"/>
			</g>
		</g>
		<g class="st1">
			<defs>
				<polygon id="SVGID_29_" points="28.84,91.29 344.07,91.29 344.07,22.55 28.84,22.55 28.84,91.29 				"/>
			</defs>
			<clipPath id="SVGID_8_">
				<use xlink:href="#SVGID_29_"  style="overflow:visible;"/>
			</clipPath>
			<g class="st3">
				<defs>
					<rect id="SVGID_31_" x="28.84" y="22.55" width="315.23" height="68.73"/>
				</defs>
				<clipPath id="SVGID_10_">
					<use xlink:href="#SVGID_31_"  style="overflow:visible;"/>
				</clipPath>
				<g class="st4">
					<path class="st5" d="M149.97,37.44c0.6-0.02,1.47,0.02,1.85,0.1c0.23,0.04,0.37,0.21,0.39,0.42c0.02,0.44-0.1,0.81-0.25,0.93
						c-0.13,0.12-0.35,0.17-0.54,0.17l-3.41,0.08v0.17c0,1.23-0.25,2.93-0.64,3.8h-1.16c-0.08-0.48-0.17-1.52-0.19-2.39
						c-2.82,0.87-6.42,1.5-8.93,1.66c-0.27,0.02-0.52,0.04-0.75,0.04c-0.83,0-1.39-0.48-1.64-1.23c-0.06-0.21-0.1-0.58-0.1-1.02
						v-4.96c-0.29-0.31-0.77-0.58-1.31-0.73l0.12-0.58c0.04-0.08,0.1-0.13,0.23-0.13c0.73,0,2.37,0.08,3.03,0.23
						c0.83-0.02,3.24-0.1,3.88-0.19l0.6-0.37c0.56,0,1.43,0.04,1.87,0.15c0.23,0.04,0.33,0.17,0.33,0.35c0,0.44-0.15,0.79-0.27,0.91
						c-0.06,0.08-0.19,0.12-0.33,0.12l-6.13,0.21v5.23c0,0.27,0.1,0.37,0.39,0.37c2.41-0.02,6.27-0.46,8.97-1.16v-6.73
						c-0.31-0.46-0.96-0.87-1.68-1.14l0.23-0.64c0.02-0.08,0.08-0.12,0.27-0.12c0.87,0.04,2.33,0.33,2.99,0.62
						c0.21,0.08,0.29,0.25,0.27,0.5l-0.06,1.16v4.63l1.29-0.06L149.97,37.44z M146.84,43.71c0.1-0.04,0.27-0.04,0.37,0
						c0.27,0.15,0.81,0.46,1.02,0.6c0.08,0.08,0.08,0.17,0.04,0.29L148,45.37l-0.04,2.72c0,0.93-0.25,2.39-0.58,3.16h-1.21
						c-0.12-0.64-0.21-1.95-0.21-2.68v-3.28c-1.6,0-5.15,0.06-5.96,0.12c-0.52,0.02-1.45,0.19-1.95,0.35
						c-0.73-0.27-1.45-0.71-1.97-1.14c-0.08-0.06-0.1-0.15-0.06-0.25l0.17-0.33c0.69,0.12,1.6,0.19,2.22,0.19
						c0.96,0,6.38-0.1,7.75-0.21L146.84,43.71z"/>
					<path class="st5" d="M164.78,44.19c0.02,0.08-0.04,0.17-0.17,0.21c-1.83,0.71-4.82,1.31-6.73,1.47
						c-0.29,0.02-0.6,0.04-0.83,0.04c-1.02,0-1.43-0.29-1.74-1.1c-0.06-0.13-0.1-0.56-0.1-1.08v-7.62
						c-0.29-0.31-0.77-0.58-1.31-0.75l0.15-0.58c0.02-0.06,0.08-0.12,0.23-0.12c0.71,0,2.33,0.1,2.99,0.25
						c0.83-0.02,2.95-0.1,3.53-0.19l0.62-0.35c0.58,0,1.47,0.02,1.93,0.13c0.21,0.04,0.33,0.17,0.33,0.35
						c0,0.44-0.15,0.79-0.27,0.93c-0.06,0.08-0.19,0.13-0.33,0.13l-5.84,0.19v3.39c0.81-0.04,2.14-0.08,2.64-0.17l0.6-0.33
						c0.56,0,1.35,0.04,1.74,0.1c0.21,0.04,0.33,0.17,0.33,0.35c0,0.39-0.1,0.73-0.23,0.83c-0.06,0.08-0.21,0.12-0.37,0.12
						l-4.71,0.27v3.28c0,0.25,0.1,0.35,0.37,0.35c1.93,0,5.11-0.33,6.79-0.71c0.13-0.04,0.21,0,0.25,0.1L164.78,44.19z
						 M165.86,31.12c0.04-0.08,0.08-0.12,0.27-0.12c0.89,0.04,2.37,0.33,3.05,0.62c0.21,0.08,0.29,0.25,0.27,0.5l-0.06,1.18v12.83
						c0,1.29-0.25,3.59-0.69,4.9h-1.12c-0.13-0.81-0.21-3.32-0.21-4.26v-6.75c-0.44,0-0.96,0.02-1.18,0.04
						c-0.35,0.04-0.98,0.19-1.35,0.33c-0.62-0.31-1.16-0.69-1.6-1.1c-0.08-0.08-0.1-0.15-0.06-0.25l0.15-0.27
						c0.52,0.08,1.23,0.13,1.79,0.13c0.52,0,1.52-0.02,2.26-0.06v-5.94c-0.33-0.46-1-0.87-1.72-1.14L165.86,31.12z"/>
					<path class="st5" d="M176.96,40.74c-0.06,0.35-0.19,0.62-0.39,0.89h-1.1c-0.13-0.37-0.21-0.91-0.25-1.39l-0.44-5.59
						c-0.23-0.25-0.66-0.52-1.1-0.69l0.15-0.56c0.02-0.08,0.08-0.12,0.23-0.12c0.77,0,2.14,0.1,2.89,0.25c1.16,0,3.61-0.02,4.78-0.1
						l0.83-0.42c0.13-0.06,0.29-0.06,0.39,0c0.31,0.12,0.91,0.44,1.14,0.6c0.08,0.06,0.1,0.15,0.04,0.29l-0.27,0.83
						c-0.08,1.45-0.27,3.2-0.5,4.63l0.39,0.17c0.1,0.06,0.17,0.15,0.17,0.27c0,0.37-0.15,0.73-0.27,0.85L176.96,40.74z M177,39.53
						c1.25,0,3.28-0.02,4.3-0.08l0.4-0.1l0.06-4.69c-1.52,0-3.36,0.04-4.84,0.08L177,39.53z M188.28,48.92
						c0.6-0.02,1.5,0.06,1.91,0.17c0.21,0.04,0.33,0.17,0.33,0.35c0,0.46-0.14,0.79-0.27,0.89c-0.08,0.08-0.19,0.12-0.31,0.12
						l-9.22,0.04c-1.25,0-1.68-0.46-1.68-1.47v-1.87c-0.27-0.27-0.71-0.48-1.18-0.6l0.08-0.46c0.02-0.08,0.08-0.12,0.23-0.12
						c0.69,0,2.33,0.04,2.95,0.1c1.31,0,4.69-0.04,5.48-0.08l0.39-0.1c0.04-0.44,0.06-1.52,0.04-1.93
						c-1.37-0.02-4.76,0.02-5.52,0.06c-0.44,0.02-1.25,0.17-1.79,0.31c-0.66-0.29-1.31-0.73-1.79-1.12c-0.1-0.08-0.1-0.15-0.06-0.25
						l0.15-0.25c0.6,0.1,1.52,0.19,2.04,0.19c1.06,0,5.92-0.06,7.21-0.1l0.73-0.33c0.1-0.04,0.25-0.04,0.37,0
						c0.27,0.1,0.79,0.35,1.02,0.48c0.08,0.06,0.1,0.19,0.04,0.31l-0.29,0.62c-0.04,0.58-0.25,1.6-0.42,2.08l0.37,0.17
						c0.1,0.06,0.15,0.15,0.15,0.23c0,0.31-0.1,0.62-0.23,0.75l-7.93,0.08v1.72c0,0.27,0.1,0.39,0.37,0.39
						c1.47,0.02,4.96,0,6.19-0.06L188.28,48.92z M187.32,32.91c-0.31-0.46-0.96-0.87-1.68-1.14l0.21-0.64
						c0.04-0.08,0.1-0.12,0.29-0.12c0.87,0.04,2.33,0.33,2.99,0.62c0.19,0.08,0.27,0.25,0.27,0.5l-0.06,1.16v4.98
						c0,1.16-0.27,2.74-0.62,3.51h-1.18c-0.15-0.64-0.21-2.22-0.21-2.97V32.91z"/>
					<path class="st5" d="M205.89,31.12c0.02-0.08,0.08-0.12,0.27-0.12c0.87,0.04,2.37,0.33,3.03,0.62c0.21,0.08,0.29,0.25,0.29,0.5
						l-0.08,1.18v12.83c0,1.29-0.25,3.59-0.66,4.9h-1.14c-0.1-0.81-0.19-3.32-0.19-4.26v-2.72c-2.85,0.89-6.6,1.56-9.18,1.77
						c-0.29,0.02-0.56,0.02-0.77,0.02c-0.83,0-1.41-0.48-1.66-1.25c-0.08-0.21-0.12-0.6-0.12-1.04V40.2
						c-0.29-0.27-0.75-0.5-1.23-0.64l0.1-0.5c0.02-0.08,0.08-0.12,0.23-0.12c0.69,0,2.33,0.02,2.97,0.1
						c0.98-0.02,3.07-0.08,3.61-0.12l0.35-0.1c0.08-0.66,0.08-2.74,0.04-3.41c-0.96,0-3.22,0.04-3.72,0.08
						c-0.42,0.04-1.16,0.19-1.66,0.33c-0.62-0.31-1.23-0.73-1.7-1.12c-0.08-0.06-0.08-0.15-0.06-0.23l0.17-0.31
						c0.56,0.12,1.43,0.17,1.93,0.17c0.83,0.02,4.38-0.04,5.3-0.1l0.73-0.35c0.1-0.06,0.27-0.06,0.39,0
						c0.27,0.12,0.83,0.42,1.06,0.56c0.1,0.06,0.1,0.17,0.06,0.29L204,35.44c-0.04,0.93-0.31,2.55-0.52,3.36l0.44,0.23
						c0.1,0.06,0.15,0.15,0.15,0.25c0,0.31-0.13,0.62-0.23,0.75l-6.11,0.19v3.57c0,0.27,0.1,0.39,0.39,0.39
						c2.51-0.02,6.58-0.48,9.28-1.23V32.91c-0.33-0.46-1-0.87-1.72-1.14L205.89,31.12z"/>
					<path class="st5" d="M229.34,45.25c0.81,0.04,1.99,0.19,2.51,0.37c0.19,0.06,0.31,0.21,0.31,0.42c0,0.46-0.31,0.85-0.56,0.98
						c-0.54-0.06-1.87-0.1-2.53-0.1c-1.43-0.02-10.4,0.08-11.59,0.17c-0.54,0.04-1.7,0.25-2.24,0.42c-0.81-0.29-1.66-0.81-2.2-1.31
						c-0.08-0.08-0.1-0.17-0.06-0.25l0.17-0.33c0.77,0.12,1.79,0.21,2.51,0.23c0.91,0.02,6.08-0.04,9.64-0.1
						c0.56-2.89,0.96-7.31,1.02-10.24c-1.77,0-5.94,0.08-6.96,0.15c-0.56,0.02-1.54,0.19-2.08,0.35c-0.68-0.29-1.45-0.79-1.95-1.25
						c-0.1-0.08-0.1-0.17-0.06-0.25l0.14-0.31c0.71,0.12,1.6,0.19,2.22,0.19c1.08,0,7.31-0.1,8.78-0.19l0.85-0.42
						c0.15-0.06,0.31-0.06,0.42,0c0.33,0.15,0.93,0.52,1.18,0.71c0.1,0.08,0.1,0.17,0.06,0.29l-0.35,0.85
						c-0.06,2.89-0.87,7.1-1.95,10.07c0.89-0.02,1.58-0.04,1.89-0.06L229.34,45.25z"/>
					<path class="st5" d="M247.04,31.14c0.04-0.1,0.1-0.15,0.29-0.15c0.81,0.04,2.2,0.31,2.8,0.6c0.21,0.08,0.29,0.25,0.27,0.48
						l-0.06,1.1v6.58c0,1.08-0.27,2.76-0.6,3.61h-1.14c-0.12-0.66-0.21-2.33-0.21-3.09V38.5l-2.06,0.04v1.23
						c0,1.27-0.25,2.76-0.58,3.55h-1.08c-0.08-0.37-0.15-1.02-0.17-1.66c-2.16,0.77-4.96,1.29-6.87,1.45
						c-0.27,0.02-0.54,0.02-0.77,0.02c-0.81,0-1.37-0.48-1.62-1.2c-0.06-0.21-0.1-0.6-0.1-1.04v-2.12c-0.25-0.25-0.66-0.44-1.1-0.56
						l0.1-0.5c0.04-0.08,0.1-0.12,0.23-0.12c0.62,0,2.14,0,2.74,0.04c0.67,0,2.24-0.04,2.66-0.08l0.29-0.08
						c0.02-0.5,0.02-1.95,0-2.39c-0.6,0-2.35,0.02-2.76,0.06c-0.37,0.02-1.02,0.15-1.43,0.27c-0.6-0.27-1.16-0.69-1.58-1.06
						c-0.08-0.1-0.1-0.17-0.06-0.25l0.17-0.29c0.5,0.1,1.31,0.19,1.79,0.19c0.69,0,3.18-0.04,3.93-0.08l0.77-0.37
						c0.1-0.04,0.25-0.04,0.37,0c0.27,0.12,0.81,0.44,1.04,0.58c0.1,0.06,0.1,0.15,0.06,0.27l-0.25,0.71
						c-0.02,0.64-0.23,1.83-0.37,2.39l0.35,0.21c0.1,0.06,0.15,0.17,0.15,0.25c0,0.31-0.13,0.62-0.23,0.75l-4.92,0.15v2.31
						c0,0.27,0.1,0.37,0.39,0.37c1.87-0.02,4.9-0.37,7-0.91v-6.73c-0.27-0.4-0.83-0.75-1.43-0.98l0.21-0.62
						c0.04-0.08,0.1-0.13,0.29-0.13c0.77,0.02,2.04,0.31,2.62,0.58c0.19,0.08,0.25,0.23,0.25,0.46l-0.06,0.98v3.16l2.06-0.04v-4.44
						c-0.29-0.42-0.89-0.81-1.56-1.06L247.04,31.14z M248.87,43.85c0.1-0.06,0.27-0.06,0.37,0c0.31,0.12,0.85,0.37,1.06,0.54
						c0.08,0.04,0.1,0.15,0.06,0.27l-0.27,0.83c-0.08,1.06-0.25,2.22-0.5,3.28l0.39,0.19c0.13,0.06,0.19,0.17,0.19,0.29
						c0,0.39-0.15,0.77-0.33,0.91l-7.81,0.08c-0.06,0.25-0.19,0.44-0.35,0.62h-1.1c-0.15-0.31-0.25-0.79-0.29-1.18l-0.33-4.22
						c-0.25-0.27-0.69-0.54-1.12-0.71l0.15-0.56c0.02-0.06,0.08-0.1,0.21-0.1c0.75,0,2.08,0.1,2.82,0.23
						c1.39-0.02,4.63-0.06,6.04-0.15L248.87,43.85z M242.12,48.96c1.56,0.02,4.11-0.02,5.4-0.1l0.44-0.1l0.06-3.26
						c-1.87,0-4.15,0.06-5.96,0.12L242.12,48.96z"/>
				</g>
			</g>
			<g class="st3">
				<defs>
					<polygon id="SVGID_33_" points="28.84,91.29 344.07,91.29 344.07,22.55 28.84,22.55 28.84,91.29 					"/>
				</defs>
				<clipPath id="SVGID_12_">
					<use xlink:href="#SVGID_33_"  style="overflow:visible;"/>
				</clipPath>
				<g class="st6">
					<defs>
						<rect id="SVGID_35_" x="28.84" y="22.55" width="315.23" height="68.73"/>
					</defs>
					<clipPath id="SVGID_14_">
						<use xlink:href="#SVGID_35_"  style="overflow:visible;"/>
					</clipPath>
					<g class="st7">
						<path d="M269.43,39.85c0.81,0.04,1.99,0.19,2.51,0.37c0.19,0.06,0.31,0.19,0.31,0.39c0,0.44-0.31,0.83-0.56,0.93
							c-0.54-0.06-1.87-0.1-2.53-0.1c-1.43-0.02-10.45,0.08-11.61,0.17c-0.52,0.04-1.68,0.25-2.22,0.42
							c-0.81-0.27-1.66-0.79-2.2-1.27c-0.08-0.06-0.1-0.15-0.06-0.23l0.17-0.33c0.77,0.12,1.79,0.21,2.51,0.23
							c1.31,0.02,11.4-0.1,12.85-0.21L269.43,39.85z M267.04,49.05c0.58,0,1.5,0.06,1.91,0.17c0.21,0.04,0.33,0.17,0.33,0.35
							c0,0.44-0.15,0.77-0.25,0.87c-0.08,0.08-0.23,0.1-0.35,0.1l-9.3,0.06h-0.02c-1.29-0.02-1.74-0.48-1.74-1.47v-1.74
							c-0.27-0.27-0.71-0.48-1.18-0.6l0.08-0.48c0.02-0.06,0.08-0.12,0.23-0.12c0.69,0,2.33,0.04,2.95,0.12
							c1.37,0,4.94-0.04,5.73-0.08l0.39-0.1c0.04-0.42,0.06-1.39,0.04-1.79c-1.39-0.02-5.07,0.02-5.86,0.06
							c-0.44,0.04-1.23,0.17-1.76,0.31c-0.64-0.27-1.29-0.69-1.77-1.1c-0.08-0.08-0.1-0.15-0.06-0.23l0.15-0.27
							c0.6,0.12,1.47,0.19,2.01,0.19c1.1,0,6.31-0.04,7.54-0.1l0.69-0.31c0.1-0.04,0.23-0.04,0.37,0c0.25,0.1,0.81,0.33,1.02,0.46
							c0.1,0.06,0.1,0.19,0.06,0.31l-0.29,0.62c-0.04,0.54-0.25,1.47-0.42,1.91l0.37,0.17c0.08,0.06,0.15,0.12,0.15,0.23
							c0,0.31-0.12,0.6-0.23,0.71l-8.18,0.1v1.64c0,0.27,0.12,0.39,0.39,0.39c1.52,0.02,5.09,0,6.33-0.06L267.04,49.05z
							 M257.7,35.48c0-2.14,2.06-3.57,4.92-3.57c2.84,0,4.9,1.43,4.9,3.57c0,2.16-2.06,3.59-4.9,3.59
							C259.75,39.08,257.7,37.64,257.7,35.48z M259.75,35.48c0,1.43,1.2,2.28,2.87,2.28c1.64,0,2.84-0.85,2.84-2.28
							s-1.2-2.28-2.84-2.28C260.96,33.2,259.75,34.05,259.75,35.48z"/>
					</g>
				</g>
				<g class="st6">
					<defs>
						<polygon id="SVGID_37_" points="28.84,91.29 344.07,91.29 344.07,22.55 28.84,22.55 28.84,91.29 						"/>
					</defs>
					<clipPath id="SVGID_16_">
						<use xlink:href="#SVGID_37_"  style="overflow:visible;"/>
					</clipPath>
					<g class="st8">
						<defs>
							<rect id="SVGID_39_" x="28.84" y="22.55" width="315.23" height="68.73"/>
						</defs>
						<clipPath id="SVGID_18_">
							<use xlink:href="#SVGID_39_"  style="overflow:visible;"/>
						</clipPath>
						<g class="st9">
							<path d="M59.13,64.2c0.6-0.02,1.47,0.02,1.85,0.1c0.23,0.06,0.37,0.23,0.39,0.42c0.02,0.44-0.1,0.81-0.25,0.96
								c-0.13,0.1-0.35,0.17-0.54,0.17l-3.38,0.08v5.17c0,1.29-0.25,3.59-0.69,4.9h-1.14c-0.1-0.81-0.19-3.32-0.19-4.26v-3.2
								c-2.78,0.91-6.33,1.6-8.76,1.81c-0.29,0.04-0.56,0.04-0.79,0.04c-0.85,0-1.45-0.5-1.7-1.27c-0.08-0.23-0.12-0.6-0.12-1.04
								v-6.92c-0.29-0.31-0.81-0.58-1.35-0.73l0.12-0.58c0.04-0.08,0.1-0.12,0.23-0.12c0.71,0,2.26,0.08,2.99,0.21
								c0.87,0,3.3-0.1,3.97-0.17l0.6-0.37c0.56,0,1.45,0.04,1.89,0.13c0.19,0.04,0.31,0.17,0.31,0.37c0,0.44-0.12,0.77-0.25,0.91
								c-0.08,0.08-0.21,0.12-0.35,0.12l-6.11,0.21v7.12c0,0.27,0.1,0.39,0.37,0.37c2.41-0.04,6.27-0.52,8.95-1.25v-9.53
								c-0.33-0.46-1-0.87-1.72-1.14l0.21-0.64c0.04-0.08,0.08-0.12,0.27-0.12c0.89,0.04,2.37,0.33,3.05,0.62
								c0.21,0.08,0.29,0.25,0.27,0.5l-0.06,1.18v6.42l1.27-0.06L59.13,64.2z"/>
							<path d="M78.31,65.8c0.81,0.02,1.99,0.19,2.51,0.35c0.19,0.06,0.31,0.21,0.31,0.42c0,0.46-0.31,0.87-0.56,0.98
								c-0.54-0.06-1.87-0.1-2.53-0.1c-0.66,0-2.93,0.02-5.3,0.06v1.06c0,1.04-0.25,2.82-0.56,3.76h-1.27
								c-0.08-0.75-0.17-2.41-0.17-3.22v-1.58c-2.04,0.02-3.82,0.06-4.3,0.08c-0.54,0.04-1.7,0.25-2.24,0.42
								c-0.81-0.27-1.66-0.81-2.2-1.31c-0.08-0.06-0.1-0.17-0.06-0.25l0.17-0.33c0.77,0.15,1.79,0.23,2.51,0.23
								c1.31,0.02,11.38-0.1,12.85-0.21L78.31,65.8z M75.65,73.71c0.66,0,1.66,0.08,2.1,0.17c0.19,0.04,0.33,0.19,0.33,0.37
								c0,0.5-0.17,0.85-0.29,0.98c-0.08,0.08-0.21,0.1-0.35,0.1l-9.16,0.06c-1.41,0-1.93-0.56-1.93-1.77v-2.47
								c-0.35-0.27-0.91-0.54-1.45-0.69l0.13-0.56c0.02-0.08,0.1-0.15,0.27-0.15c0.79,0,2.18,0.08,2.78,0.21
								c0.23,0.06,0.35,0.21,0.35,0.48l-0.04,1.02v2.2c0,0.35,0.12,0.52,0.5,0.52c1.39,0.02,4.74,0,6-0.06L75.65,73.71z
								 M66.47,61.09c0-2.33,2.08-3.95,5-3.95c2.93,0,5,1.62,5,3.95c0,2.31-2.08,3.93-5,3.93C68.55,65.01,66.47,63.39,66.47,61.09z
								 M68.5,61.09c0,1.62,1.25,2.62,2.97,2.62s2.97-1,2.97-2.62c0-1.66-1.25-2.66-2.97-2.66S68.5,59.42,68.5,61.09z"/>
							<path d="M98.37,70.97c0.81,0.04,1.99,0.19,2.51,0.37c0.19,0.06,0.31,0.21,0.31,0.42c0,0.46-0.31,0.85-0.56,0.98
								c-0.54-0.06-1.87-0.1-2.53-0.1c-1.43-0.02-10.4,0.08-11.59,0.17c-0.54,0.04-1.7,0.25-2.24,0.42
								c-0.81-0.29-1.66-0.81-2.2-1.33c-0.08-0.06-0.1-0.15-0.06-0.23l0.17-0.33c0.77,0.13,1.79,0.21,2.51,0.23
								c0.62,0,3.24-0.02,5.96-0.04v-3.53l-3.03,0.04c-1.23-0.02-1.7-0.52-1.7-1.64v-2.7c-0.27-0.25-0.71-0.48-1.18-0.6l0.08-0.5
								c0.02-0.08,0.1-0.12,0.23-0.12c0.71,0,2.37,0.04,2.99,0.1c1.52,0,5.57-0.06,6.52-0.12l0.46-0.1c0.08-0.64,0.1-2.18,0.06-2.76
								c-1.45-0.02-5.48,0.04-6.35,0.08c-0.46,0.02-1.33,0.17-1.87,0.33c-0.71-0.33-1.37-0.77-1.87-1.23
								c-0.08-0.08-0.1-0.15-0.06-0.25l0.17-0.29c0.6,0.12,1.58,0.19,2.12,0.19c1.12,0.02,6.67-0.04,8.04-0.1l0.81-0.37
								c0.13-0.06,0.25-0.06,0.39,0c0.29,0.12,0.87,0.39,1.1,0.54c0.1,0.06,0.1,0.19,0.04,0.33l-0.29,0.73
								c-0.06,0.79-0.33,2.16-0.54,2.82l0.46,0.21c0.08,0.06,0.12,0.15,0.12,0.25c0,0.33-0.12,0.64-0.25,0.77l-9.1,0.15v2.62
								c0,0.31,0.12,0.46,0.44,0.46c1.75,0.02,5.69-0.04,7.1-0.13l0.58-0.33c0.66-0.02,1.64,0.04,2.08,0.15
								c0.21,0.04,0.33,0.19,0.33,0.37c0,0.44-0.15,0.77-0.27,0.89c-0.08,0.08-0.21,0.1-0.35,0.1l-5.25,0.08v3.53
								c2.29-0.04,4.3-0.08,4.9-0.12L98.37,70.97z"/>
							<path d="M118.44,70.49c0.81,0.04,1.99,0.19,2.51,0.37c0.19,0.06,0.31,0.21,0.31,0.42c0,0.46-0.31,0.85-0.56,0.98
								c-0.54-0.06-1.87-0.1-2.53-0.1c-1.43-0.02-10.4,0.08-11.59,0.17c-0.54,0.04-1.7,0.25-2.24,0.42
								c-0.81-0.29-1.66-0.83-2.2-1.33c-0.08-0.06-0.1-0.15-0.06-0.23l0.17-0.33c0.77,0.12,1.79,0.21,2.51,0.23
								c1.31,0.02,11.38-0.1,12.85-0.21L118.44,70.49z M106.02,60.46c-0.35-0.31-0.89-0.58-1.5-0.73l0.15-0.6
								c0.02-0.06,0.08-0.13,0.23-0.13c0.75,0,2.49,0.1,3.22,0.23c1.95-0.02,5.61-0.08,6.75-0.15l0.66-0.35
								c0.64,0,1.62,0.04,2.12,0.15c0.21,0.04,0.33,0.19,0.33,0.37c0,0.44-0.13,0.75-0.25,0.89c-0.08,0.1-0.21,0.12-0.35,0.12
								l-9.28,0.17v5c0,0.37,0.13,0.52,0.48,0.52c1.45,0.02,5.19-0.04,6.54-0.12l0.62-0.33c0.67-0.02,1.64,0.06,2.1,0.17
								c0.21,0.04,0.33,0.19,0.33,0.37c0,0.46-0.15,0.77-0.27,0.87c-0.08,0.08-0.21,0.12-0.33,0.12l-9.59,0.15
								c-1.39,0-1.95-0.6-1.95-1.83V60.46z"/>
						</g>
					</g>
					<g class="st8">
						<defs>
							<polygon id="SVGID_41_" points="28.84,91.29 344.07,91.29 344.07,22.55 28.84,22.55 28.84,91.29 							"/>
						</defs>
						<clipPath id="SVGID_20_">
							<use xlink:href="#SVGID_41_"  style="overflow:visible;"/>
						</clipPath>
						<g class="st10">
							<defs>
								<rect id="SVGID_43_" x="28.84" y="22.55" width="315.23" height="68.73"/>
							</defs>
							<clipPath id="SVGID_22_">
								<use xlink:href="#SVGID_43_"  style="overflow:visible;"/>
							</clipPath>
							<g class="st11">
								<path d="M137.38,60.96c0.62,0.04,1.52,0.17,1.91,0.29c0.15,0.06,0.25,0.19,0.25,0.33c0,0.46-0.27,0.85-0.46,0.98
									c-0.39-0.04-1.43-0.06-1.91-0.06c-0.81,0-5.79,0.08-6.56,0.15c-0.42,0.02-1.18,0.17-1.58,0.29
									c-0.62-0.27-1.29-0.75-1.72-1.16c-0.08-0.08-0.08-0.17-0.06-0.23l0.15-0.27c0.64,0.1,1.52,0.17,2.01,0.17
									c0.89,0.02,6.38-0.08,7.29-0.15L137.38,60.96z M137.94,67.44c0,2.22-2.01,3.66-4.36,3.66s-4.36-1.43-4.36-3.66
									c0-2.24,2.01-3.7,4.36-3.7S137.94,65.2,137.94,67.44z M130.36,57.91c1.91,0.33,3.9,0.42,5.32,0.39
									c0.23,0,0.33,0.04,0.42,0.21c0.15,0.27,0.1,0.91-0.1,1.12c-0.08,0.1-0.21,0.12-0.35,0.12c-1.02,0-2.66,0.04-3.57,0.13
									c-0.25,0.02-0.37,0-0.52-0.1c-0.44-0.27-1-0.85-1.35-1.39c-0.04-0.1-0.04-0.17,0-0.25L130.36,57.91z M135.99,67.44
									c0-1.5-1.1-2.35-2.41-2.35c-1.29,0-2.39,0.85-2.39,2.35c0,1.47,1.1,2.33,2.39,2.33C134.89,69.77,135.99,68.92,135.99,67.44z
									 M144.63,64.8c0.6-0.02,1.47,0.02,1.85,0.1c0.23,0.06,0.37,0.23,0.39,0.42c0.02,0.44-0.1,0.81-0.25,0.96
									c-0.13,0.1-0.35,0.17-0.54,0.17l-3.39,0.08v4.57c0,1.29-0.25,3.59-0.68,4.9h-1.14c-0.1-0.81-0.19-3.32-0.19-4.26V57.87
									c-0.33-0.46-1-0.87-1.72-1.14l0.21-0.64c0.04-0.08,0.08-0.12,0.27-0.12c0.89,0.04,2.37,0.33,3.05,0.62
									c0.21,0.08,0.29,0.25,0.27,0.5l-0.06,1.18v7.02l1.27-0.06L144.63,64.8z"/>
								<path d="M156.51,67.15c0.27,0.5,0.6,1.27,0.75,1.68c0.1,0.33,0.1,0.56,0.02,0.69c-0.17,0.29-0.64,0.42-0.91,0.29
									c-0.15-0.06-0.33-0.27-0.48-0.46l-2.87-3.78c-1.12,1.7-2.66,3.34-4.55,4.76c-0.1,0.08-0.19,0.08-0.27,0.02l-0.35-0.31
									c-0.06-0.06-0.06-0.15,0.02-0.25c2.6-2.74,4.34-6.06,4.84-8.91c-0.19-0.33-0.64-0.73-1.14-1l0.29-0.56
									c0.04-0.08,0.1-0.12,0.27-0.1c0.83,0.12,2.1,0.48,2.6,0.77c0.19,0.1,0.29,0.25,0.29,0.44c0.02,0.19,0,0.37-0.04,0.52
									c-0.21,1.12-0.64,2.31-1.27,3.47l1.97,2.35L156.51,67.15z M157.78,57.58c0.04-0.08,0.1-0.15,0.29-0.15
									c0.77,0.04,2.04,0.31,2.62,0.58c0.17,0.08,0.25,0.23,0.25,0.46l-0.06,1V70.2c0,1.2-0.25,3.28-0.62,4.46h-1.04
									c-0.15-0.83-0.21-2.99-0.21-3.88v-5.92c-0.39,0.02-0.79,0.04-1,0.06c-0.35,0.02-0.89,0.15-1.25,0.29
									c-0.54-0.27-1.04-0.62-1.43-1.02c-0.06-0.08-0.08-0.15-0.04-0.23l0.15-0.25c0.48,0.04,1.12,0.06,1.64,0.06
									c0.46,0,1.25-0.02,1.93-0.04v-4.59c-0.27-0.37-0.85-0.75-1.45-0.98L157.78,57.58z M161.43,56.1c0.04-0.1,0.1-0.15,0.29-0.15
									c0.81,0.04,2.2,0.31,2.8,0.6c0.21,0.08,0.29,0.25,0.27,0.48l-0.06,1.1v13.13c0,1.27-0.25,3.47-0.64,4.73h-1.1
									c-0.12-0.77-0.21-3.18-0.21-4.11v-14.1c-0.29-0.42-0.89-0.81-1.56-1.06L161.43,56.1z"/>
								<path d="M183.87,70.91c0.81,0.04,1.99,0.19,2.51,0.37c0.19,0.06,0.31,0.21,0.31,0.42c0,0.46-0.31,0.85-0.56,0.98
									c-0.54-0.06-1.87-0.1-2.53-0.1c-1.43-0.02-10.4,0.08-11.59,0.17c-0.54,0.04-1.7,0.25-2.24,0.42
									c-0.81-0.29-1.66-0.83-2.2-1.33c-0.08-0.06-0.1-0.15-0.06-0.23l0.17-0.33c0.77,0.12,1.79,0.21,2.51,0.23
									c0.42,0,1.7,0,3.32-0.02l-0.12-2.31c-0.23-0.27-0.69-0.52-1.12-0.64l0.1-0.58c0.02-0.06,0.08-0.12,0.29-0.12
									c0.73,0,1.93,0.15,2.49,0.29c0.19,0.06,0.27,0.19,0.25,0.42l-0.06,0.93v1.99l4.15-0.06l0.19-2.55
									c-0.21-0.31-0.62-0.62-1.06-0.81l0.19-0.54c0.04-0.08,0.1-0.12,0.29-0.12c0.75,0.08,1.89,0.31,2.43,0.58
									c0.21,0.08,0.27,0.21,0.23,0.37l-0.19,0.93l-0.29,2.1c0.83-0.02,1.47-0.04,1.77-0.06L183.87,70.91z M171.55,62.52
									c0-2.62,2.33-4.44,5.44-4.44c3.14,0,5.46,1.83,5.46,4.44c0,2.64-2.33,4.44-5.46,4.44
									C173.88,66.96,171.55,65.16,171.55,62.52z M173.67,62.52c0,1.89,1.45,3.03,3.32,3.03c1.89,0,3.34-1.14,3.34-3.03
									s-1.45-3.03-3.34-3.03C175.12,59.49,173.67,60.63,173.67,62.52z"/>
							</g>
						</g>
					</g>
				</g>
			</g>
		</g>
	</g>
</g>
</svg>
