<?xml version="1.0" standalone="no"?>
<!DOCTYPE svg PUBLIC "-//W3C//DTD SVG 20010904//EN"
 "http://www.w3.org/TR/2001/REC-SVG-20010904/DTD/svg10.dtd">
<svg version="1.0" xmlns="http://www.w3.org/2000/svg"
 width="1300.000000pt" height="1300.000000pt" viewBox="0 0 1300.000000 1300.000000"
 preserveAspectRatio="xMidYMid meet">

<g transform="translate(0.000000,1300.000000) scale(0.100000,-0.100000)"
fill="#000000" stroke="none">
<path d="M6140 11765 c-418 -36 -767 -106 -1128 -229 -225 -76 -316 -114 -597
-247 -302 -143 -713 -422 -1000 -678 -232 -208 -516 -507 -497 -525 4 -4 2 -6
-4 -4 -24 6 -246 -295 -389 -527 -344 -558 -574 -1208 -649 -1840 -27 -224
-30 -274 -15 -292 8 -9 9 -14 3 -10 -7 4 -15 0 -18 -9 -12 -32 -6 -532 9 -691
56 -609 204 -1135 466 -1663 235 -470 504 -848 874 -1225 89 -90 262 -248 314
-285 18 -14 47 -37 63 -53 41 -37 235 -182 328 -245 199 -133 530 -315 723
-398 37 -15 67 -32 67 -36 0 -4 -52 -36 -116 -72 -209 -119 -385 -183 -686
-250 -105 -23 -191 -70 -267 -145 -77 -77 -138 -180 -118 -201 7 -7 7 -10 1
-7 -36 20 -58 -195 -31 -300 44 -169 155 -303 309 -372 35 -16 126 -49 203
-75 681 -223 1387 -221 2060 7 170 57 236 86 429 182 418 209 812 535 1110
920 l78 100 91 27 c205 59 391 123 511 175 429 185 735 360 1047 597 838 638
1414 1493 1693 2511 108 393 156 772 156 1233 0 156 -3 281 -7 279 -5 -3 -9
36 -9 87 -5 274 -120 823 -248 1180 -116 322 -276 648 -460 936 -126 197 -321
455 -336 445 -6 -3 -8 0 -5 7 14 37 -474 529 -670 676 -5 4 -50 40 -100 78
-274 216 -622 419 -990 579 -158 69 -415 161 -415 148 0 -3 -6 -1 -13 5 -12
10 -75 30 -232 73 -439 120 -1057 174 -1535 134z m670 -540 c281 -23 451 -50
694 -111 607 -151 1151 -429 1650 -843 127 -104 359 -335 468 -463 51 -59 95
-108 100 -108 4 0 8 -4 8 -10 0 -5 28 -47 62 -92 330 -438 572 -938 703 -1458
88 -346 125 -646 125 -1025 0 -333 -27 -591 -92 -885 -12 -52 -22 -102 -23
-110 -2 -17 -33 -121 -75 -255 -249 -789 -741 -1493 -1400 -2006 -435 -339
-954 -595 -1480 -730 -85 -22 -171 -45 -191 -50 -31 -8 -44 -21 -93 -99 -76
-119 -194 -265 -322 -399 -68 -72 -103 -115 -98 -123 5 -10 4 -10 -5 -2 -10 9
-20 4 -44 -18 -92 -86 -332 -256 -460 -327 -222 -123 -422 -203 -662 -266
-111 -29 -100 -27 -240 -49 -342 -54 -675 -45 -1000 25 -138 31 -396 110 -419
130 -4 4 27 15 70 25 458 101 880 316 1225 624 78 70 272 270 305 315 8 11 34
46 59 79 49 63 54 76 30 76 -38 0 -359 85 -508 134 -338 112 -697 287 -981
479 -68 45 -269 193 -312 229 -192 160 -426 389 -549 538 -377 454 -634 923
-794 1450 -23 74 -44 142 -48 150 -3 8 -7 24 -8 35 -2 11 -11 52 -20 90 -128
540 -140 1187 -34 1720 131 653 387 1219 783 1735 344 448 768 812 1281 1100
243 137 592 279 890 361 22 6 46 13 53 15 7 2 14 4 17 5 482 114 902 150 1335
114z"/>
</g>
</svg>
