<?xml version="1.0" standalone="no"?>
<!DOCTYPE svg PUBLIC "-//W3C//DTD SVG 20010904//EN"
 "http://www.w3.org/TR/2001/REC-SVG-20010904/DTD/svg10.dtd">
<svg version="1.0" xmlns="http://www.w3.org/2000/svg"
 width="2182.000000pt" height="3086.000000pt" viewBox="0 0 2182.000000 3086.000000"
 preserveAspectRatio="xMidYMid meet">

<g transform="translate(0.000000,3086.000000) scale(0.100000,-0.100000)"
fill="#000000" stroke="none">
<path d="M7740 30442 c-232 -105 -434 -228 -699 -428 -340 -256 -631 -531
-798 -754 -234 -315 -307 -452 -379 -710 -54 -194 -42 -527 26 -732 70 -210
202 -419 309 -488 l23 -16 -50 -99 c-67 -134 -107 -252 -138 -404 -24 -119
-25 -140 -22 -372 l3 -247 -135 -37 c-327 -91 -627 -201 -805 -294 -456 -239
-813 -560 -1095 -988 -84 -126 -174 -302 -278 -544 -148 -343 -200 -548 -209
-829 -17 -528 93 -1011 343 -1513 126 -252 403 -661 646 -952 251 -302 495
-501 808 -657 69 -35 127 -64 129 -66 8 -4 -29 -74 -94 -177 -87 -140 -113
-195 -188 -396 -36 -97 -104 -276 -151 -398 -224 -580 -310 -905 -363 -1371
-15 -127 -18 -243 -18 -635 0 -455 1 -486 22 -595 41 -213 108 -405 245 -704
121 -265 314 -560 525 -804 35 -40 74 -90 88 -111 31 -50 74 -83 100 -78 15 4
33 -11 77 -68 66 -85 142 -146 211 -169 71 -24 237 -39 352 -33 86 5 167 22
235 51 13 5 14 -18 8 -191 -11 -293 -46 -877 -68 -1128 -11 -121 -24 -305 -30
-410 -6 -104 -17 -278 -25 -385 -8 -107 -19 -285 -25 -395 -6 -110 -20 -283
-31 -385 -29 -280 -38 -386 -49 -610 -14 -261 -30 -420 -85 -810 -24 -173 -46
-349 -50 -390 -11 -137 -27 -254 -50 -370 -13 -63 -37 -214 -54 -335 -42 -303
-49 -346 -54 -351 -2 -3 -51 7 -108 22 -92 24 -115 26 -218 21 -164 -8 -235
-32 -295 -98 -52 -58 -83 -140 -92 -248 -6 -81 6 -109 61 -136 38 -19 69 -20
780 -27 605 -6 756 -10 825 -23 338 -62 516 -87 635 -88 164 -3 212 18 260
113 52 102 110 364 160 715 34 244 41 304 75 705 11 124 26 295 35 380 8 85
19 200 25 255 5 55 14 124 20 153 10 45 15 52 35 52 14 0 28 8 33 18 5 9 12
98 16 197 3 99 10 227 16 285 5 58 32 400 60 760 28 360 62 786 75 945 49 577
57 753 62 1343 3 314 8 572 13 572 4 0 13 -7 20 -15 7 -8 18 -15 26 -15 43 0
234 -809 374 -1585 142 -787 163 -902 225 -1189 138 -647 174 -856 231 -1356
26 -223 29 -276 24 -344 -2 -17 4 -34 13 -41 11 -7 24 -59 41 -156 34 -191 44
-310 50 -580 3 -124 11 -250 16 -280 6 -30 24 -143 40 -252 33 -216 54 -309
101 -444 66 -188 80 -199 265 -190 490 23 721 59 1063 168 222 71 404 105 596
113 127 5 145 8 195 34 35 17 65 42 85 70 29 43 30 47 30 159 l0 115 -35 29
c-51 43 -270 125 -355 134 -38 4 -84 13 -100 20 -42 17 -207 151 -223 180 -21
40 -50 182 -72 345 -20 157 -35 258 -64 430 -90 537 -99 607 -85 643 10 24 9
32 -10 57 -20 28 -22 51 -36 317 -8 159 -19 401 -25 538 -23 563 -45 817 -115
1370 -60 473 -87 771 -130 1415 -13 206 -36 497 -50 645 -13 149 -43 491 -65
760 -22 270 -43 507 -46 528 -4 25 -1 43 8 54 10 13 13 87 12 367 0 372 -3
425 -64 1246 -22 289 -46 647 -55 795 -26 448 -54 879 -70 1075 -8 102 -24
329 -35 505 -11 176 -25 376 -31 445 -6 69 -14 192 -18 274 -5 123 -9 150 -24
161 -9 7 -17 25 -17 41 0 64 71 594 99 742 17 86 40 220 51 297 28 186 52 296
110 500 93 327 161 493 423 1035 162 336 231 473 508 1016 82 160 181 365 220
455 69 160 106 234 319 639 132 250 136 256 211 320 103 88 826 815 934 940
55 63 139 159 187 213 111 125 150 185 248 382 94 189 100 210 70 248 -25 32
-51 34 -118 9 -65 -25 -135 -74 -337 -236 -93 -75 -171 -132 -173 -127 -2 5
48 116 111 248 63 131 138 292 168 357 29 66 74 155 101 199 26 43 50 87 53
97 7 21 -26 60 -48 60 -8 0 -109 -63 -225 -141 -214 -141 -307 -217 -439 -358
-40 -42 -72 -73 -73 -69 0 4 14 42 31 85 35 88 53 138 145 405 56 163 62 191
52 213 -52 115 -347 -76 -524 -340 -33 -49 -98 -156 -144 -237 -46 -81 -85
-146 -87 -144 -2 2 7 70 21 152 14 82 34 217 46 299 12 83 30 192 41 244 25
122 25 167 0 181 -42 22 -58 10 -194 -143 -198 -223 -217 -250 -382 -550 -170
-312 -265 -533 -296 -686 -8 -41 -15 -59 -22 -52 -5 5 -40 79 -77 164 -79 183
-140 293 -196 356 -35 38 -46 45 -79 45 -48 0 -68 -24 -95 -110 -29 -96 -43
-225 -35 -339 13 -190 88 -579 131 -673 20 -46 22 -56 10 -68 -8 -8 -33 -48
-56 -88 -22 -41 -111 -180 -197 -308 -170 -253 -189 -290 -381 -728 -340 -773
-390 -912 -572 -1597 -12 -46 -26 -83 -30 -83 -4 0 -12 33 -19 73 -30 182 -83
352 -210 670 -90 224 -208 441 -337 613 -117 158 -372 386 -545 486 -132 76
-336 141 -528 169 -108 15 -629 6 -856 -15 -281 -27 -634 -82 -885 -140 -68
-16 -109 -21 -115 -15 -6 6 -11 93 -13 205 -4 214 8 323 55 484 50 174 160
390 198 390 28 0 38 9 126 115 116 140 223 240 374 352 364 268 440 337 537
481 155 229 213 471 238 997 23 483 39 626 86 777 33 103 93 232 149 318 49
78 54 99 27 123 -27 25 -46 21 -162 -31z m-27 -159 c-8 -21 -52 -76 -97 -123
-45 -47 -136 -157 -203 -245 -66 -88 -153 -195 -193 -239 -94 -103 -179 -218
-247 -336 -31 -52 -88 -151 -128 -220 -96 -166 -120 -214 -235 -480 -54 -124
-117 -268 -140 -320 -53 -120 -103 -270 -142 -429 -29 -120 -30 -132 -26 -303
4 -197 4 -197 -59 -159 -45 28 -102 108 -171 241 -104 199 -133 320 -133 570
0 169 11 243 60 390 46 137 103 246 205 394 195 281 275 372 536 604 326 291
597 487 885 639 55 29 101 53 102 53 1 0 -5 -17 -14 -37z m-134 -423 c-10 -59
-25 -237 -34 -405 -35 -677 -71 -878 -195 -1081 -103 -167 -167 -229 -464
-447 -204 -150 -325 -254 -411 -355 l-60 -70 -3 135 c-2 119 1 148 23 237 43
167 109 353 178 501 35 77 99 221 141 320 42 99 95 214 119 255 281 488 278
483 423 647 52 59 140 168 196 241 55 74 101 132 102 130 2 -2 -5 -50 -15
-108z m4361 -1056 c-60 -403 -139 -814 -180 -936 -39 -113 -41 -190 -6 -213
19 -13 29 -14 45 -5 29 15 38 35 65 149 67 275 376 853 561 1050 57 60 185
162 185 146 0 -24 -159 -458 -227 -620 -47 -110 -103 -245 -125 -300 -22 -55
-67 -147 -100 -205 -102 -177 -122 -254 -74 -285 44 -29 59 -12 164 200 154
308 294 496 543 731 78 73 267 210 276 200 9 -9 -310 -686 -413 -876 -31 -58
-66 -118 -79 -135 -48 -64 -115 -180 -115 -199 0 -27 29 -56 55 -56 28 0 51
26 116 135 35 58 84 120 139 175 99 99 570 480 594 480 12 0 -126 -260 -174
-326 -97 -135 -412 -476 -765 -830 -203 -204 -403 -399 -443 -434 -99 -84 -88
-67 -418 -695 -34 -66 -95 -194 -134 -285 -39 -91 -146 -311 -237 -490 -259
-505 -301 -590 -487 -975 -277 -574 -337 -718 -431 -1045 -64 -225 -87 -326
-125 -569 -17 -102 -41 -247 -55 -321 -22 -116 -82 -572 -102 -766 -5 -56 -4
-62 19 -80 24 -19 25 -26 47 -294 12 -151 30 -414 41 -585 11 -170 24 -362 30
-425 10 -121 36 -516 70 -1080 11 -184 34 -510 50 -725 57 -745 61 -832 67
-1208 5 -353 5 -379 -12 -397 -16 -18 -17 -28 -6 -122 6 -57 27 -296 46 -533
20 -236 49 -578 65 -760 16 -181 39 -472 50 -645 40 -613 64 -870 130 -1410
72 -586 88 -780 115 -1380 8 -190 20 -442 26 -560 6 -118 8 -233 5 -256 -3
-27 0 -48 9 -61 8 -11 19 -60 25 -109 7 -49 20 -134 30 -189 11 -55 28 -165
40 -245 11 -80 27 -179 35 -220 8 -41 24 -142 35 -225 36 -269 41 -299 61
-379 31 -122 48 -146 162 -237 123 -99 163 -118 270 -129 62 -6 109 -20 194
-55 125 -53 129 -57 117 -148 -14 -103 -56 -127 -219 -127 -179 0 -362 -36
-645 -125 -261 -83 -431 -115 -710 -135 -80 -6 -200 -15 -267 -22 -95 -9 -125
-9 -136 0 -15 13 -75 167 -102 262 -8 30 -29 145 -45 255 -17 110 -37 243 -45
295 -9 56 -15 167 -15 270 0 96 -5 225 -10 285 -9 97 -75 519 -86 549 -2 6
-17 135 -34 286 -56 503 -86 675 -230 1355 -44 204 -97 474 -120 600 -197
1108 -266 1447 -385 1894 -71 268 -95 331 -137 366 -37 31 -62 32 -93 1 -20
-20 -26 -22 -36 -10 -17 20 -53 17 -75 -7 -18 -20 -19 -44 -20 -543 0 -542
-14 -840 -64 -1412 -11 -126 -45 -548 -75 -939 -30 -390 -60 -762 -65 -825 -5
-63 -10 -141 -10 -173 0 -42 -5 -65 -20 -85 -31 -41 -77 -283 -95 -489 -8 -98
-19 -214 -25 -258 -10 -84 -19 -186 -45 -502 -32 -398 -119 -931 -182 -1107
-39 -110 -41 -111 -191 -110 -125 0 -213 12 -527 69 -164 30 -437 39 -1125 40
-272 0 -506 4 -519 9 -22 8 -23 12 -18 60 9 76 25 122 54 157 42 49 83 61 223
67 113 4 134 2 223 -22 116 -32 162 -31 188 4 18 24 35 112 58 300 19 159 50
355 76 480 14 69 32 199 41 290 8 91 33 291 55 445 49 341 74 591 89 875 6
118 17 278 25 355 37 350 45 458 60 720 8 154 17 294 20 310 3 17 12 154 20
305 9 151 22 345 31 430 22 242 55 789 63 1065 8 293 5 283 126 415 132 143
197 255 220 375 37 192 27 391 -31 591 -44 153 -187 397 -240 410 -14 4 -26
15 -29 28 -5 23 -7 152 -24 1191 -7 451 -16 745 -26 850 -8 88 -21 279 -30
425 -18 320 -54 700 -67 718 -12 14 -64 16 -73 2 -3 -5 -14 -10 -24 -10 -33 0
-51 -25 -105 -145 -68 -154 -235 -591 -275 -720 -39 -126 -74 -289 -102 -475
-18 -118 -22 -190 -23 -390 -1 -238 0 -248 28 -360 45 -180 117 -379 211 -585
118 -261 163 -342 262 -474 47 -62 91 -128 99 -147 23 -56 106 -93 133 -60 20
24 25 21 64 -37 113 -171 176 -412 164 -626 -12 -203 -30 -256 -134 -396 -77
-104 -120 -140 -219 -187 -132 -61 -186 -71 -359 -65 -168 6 -224 19 -284 66
-42 33 -141 152 -141 168 0 21 -39 45 -62 40 -24 -6 -56 28 -251 267 -139 171
-312 448 -405 651 -243 530 -280 716 -269 1350 14 730 97 1149 362 1825 31 80
97 252 146 383 99 265 121 311 210 453 34 54 71 118 81 142 11 25 25 42 32 39
6 -3 48 -15 91 -28 71 -21 99 -24 255 -23 135 0 190 4 240 18 66 18 239 101
285 137 33 27 33 63 -1 86 -26 17 -28 16 -148 -45 -66 -34 -141 -67 -166 -74
-28 -8 -109 -12 -215 -12 -159 0 -176 2 -252 27 -77 26 -83 30 -83 55 0 66
-61 95 -99 46 l-20 -26 -115 60 c-218 115 -413 259 -566 418 -276 288 -640
795 -804 1121 -161 322 -258 617 -307 935 -30 190 -38 604 -15 738 37 217 113
435 270 777 206 449 534 838 931 1103 305 203 519 300 950 430 653 197 1276
291 1925 292 222 0 269 -2 362 -21 280 -56 425 -131 674 -344 275 -235 455
-531 656 -1076 93 -252 131 -449 149 -770 13 -226 6 -345 -41 -621 -36 -211
-56 -311 -108 -530 -22 -91 -59 -246 -82 -345 -129 -560 -259 -871 -469 -1129
-89 -109 -143 -151 -271 -214 -102 -51 -115 -60 -118 -85 -4 -36 13 -57 47
-57 15 0 81 27 146 59 135 67 197 120 316 274 203 263 333 588 464 1162 20 88
58 252 85 365 51 213 96 449 126 655 17 122 23 520 9 586 -6 28 -5 29 18 24
35 -9 62 21 70 78 15 111 189 718 266 926 74 203 384 923 505 1177 31 64 114
200 198 325 80 117 168 255 197 305 31 54 61 95 75 102 40 18 40 44 2 114 -40
73 -62 155 -106 393 -40 214 -49 405 -26 514 8 41 18 76 21 79 22 23 237 -437
315 -673 18 -55 39 -108 48 -117 19 -23 50 -23 74 -1 16 14 18 34 18 169 0
173 6 214 58 369 58 176 326 691 436 838 57 76 157 189 163 184 2 -3 -10 -99
-27 -213z m-5541 -9541 c6 -65 18 -234 27 -378 8 -143 22 -336 31 -430 11
-119 18 -358 25 -795 5 -344 11 -767 14 -940 l5 -315 -26 30 c-86 102 -153
220 -278 495 -95 209 -137 322 -184 496 l-38 139 0 255 c0 270 8 346 61 609
39 190 77 306 219 666 105 266 113 285 124 285 4 0 13 -53 20 -117z"/>
<path d="M7640 24921 c-72 -27 -74 -37 -74 -326 -1 -258 7 -350 46 -520 26
-114 47 -162 90 -207 42 -45 79 -56 113 -34 68 45 87 146 89 466 1 217 -1 241
-22 315 -13 44 -36 103 -51 130 -15 28 -36 74 -45 102 -18 53 -55 94 -85 92
-9 -1 -36 -9 -61 -18z"/>
<path d="M5228 24226 c-39 -29 -52 -85 -56 -246 -3 -138 0 -175 27 -340 60
-353 106 -470 187 -470 38 0 60 32 90 127 27 84 29 97 28 273 0 174 -2 192
-31 300 -17 63 -40 135 -51 160 -11 25 -34 75 -50 111 -17 37 -41 74 -53 83
-28 19 -68 20 -91 2z"/>
<path d="M8430 23698 c-129 -132 -280 -278 -334 -323 -89 -74 -102 -82 -124
-74 -35 13 -72 -12 -72 -50 0 -25 -10 -33 -92 -79 -51 -28 -160 -82 -243 -120
-82 -38 -269 -127 -415 -197 -146 -70 -304 -144 -351 -165 -89 -40 -300 -110
-328 -110 -9 0 -21 10 -26 23 -11 25 -58 35 -81 16 -8 -6 -14 -24 -14 -40 0
-25 -4 -28 -52 -38 -208 -42 -402 -55 -628 -42 -185 11 -273 25 -435 71 -271
78 -435 87 -451 25 -3 -14 -4 -32 0 -40 6 -17 53 -38 67 -29 5 3 9 -2 9 -10 0
-8 21 -55 47 -103 83 -158 103 -202 139 -306 72 -205 121 -280 355 -543 158
-178 265 -254 436 -307 77 -24 104 -37 112 -53 14 -32 47 -39 79 -18 23 16 47
18 172 16 247 -5 439 18 706 83 359 87 718 234 959 392 257 170 330 246 499
525 139 228 180 308 215 423 45 149 58 235 96 630 19 198 42 413 50 477 19
147 19 173 -1 192 -34 34 -55 18 -294 -226z m171 -89 c-6 -52 -22 -218 -36
-369 -30 -325 -54 -476 -96 -602 -33 -103 -60 -153 -197 -378 -112 -182 -159
-245 -238 -321 -71 -67 -300 -221 -410 -277 -290 -146 -667 -269 -987 -323
-135 -22 -490 -36 -566 -22 -44 8 -45 9 -57 64 -7 31 -40 150 -73 265 -33 115
-87 318 -120 452 -33 133 -65 251 -71 261 -16 31 -13 34 43 28 82 -7 310 9
451 33 70 12 129 20 130 18 19 -22 134 -449 226 -838 33 -138 57 -219 68 -227
37 -29 82 -3 82 48 0 63 -216 904 -266 1032 -4 10 21 21 93 42 137 38 257 88
510 209 l218 105 12 -55 c7 -31 33 -124 57 -207 49 -165 186 -704 186 -729 0
-29 40 -68 70 -68 36 0 53 22 47 62 -7 47 -180 710 -222 852 -19 65 -38 136
-41 157 l-7 39 59 26 c134 60 390 186 436 214 28 17 51 30 53 28 1 -2 21 -70
45 -153 75 -264 149 -571 144 -592 -7 -27 10 -60 36 -68 31 -10 68 19 75 57 7
37 -58 309 -149 627 -31 107 -53 198 -49 202 5 4 50 42 102 84 52 43 173 156
270 251 97 94 177 171 179 169 2 -2 -1 -45 -7 -96z m-3554 -1103 c37 -8 115
-28 173 -45 100 -28 212 -51 345 -68 l60 -8 22 -63 c13 -35 47 -163 77 -285
30 -122 84 -325 120 -451 36 -127 64 -232 61 -234 -7 -7 -79 20 -160 61 -65
33 -101 62 -191 151 -141 141 -279 307 -326 394 -21 37 -58 126 -84 197 -46
128 -84 210 -144 313 -18 28 -29 52 -26 52 2 0 35 -6 73 -14z"/>
</g>
</svg>
